<svg version="1.1" id="Layer_1" xmlns="http://www.w3.org/2000/svg" xmlns:xlink="http://www.w3.org/1999/xlink" x="0px" y="0px"
	 width="100%" viewBox="0 0 1024 724" enable-background="new 0 0 1024 724" xml:space="preserve">
<path fill="#373435" opacity="1.000000" stroke="none" 
	d="
M1015.015991,725.000000 
	C676.678711,725.000000 338.846344,725.000000 1.010461,725.000000 
	C1.006974,483.671997 1.006974,242.343979 1.003487,1.011982 
	C342.327057,1.007988 683.654114,1.007988 1024.985840,1.003994 
	C1024.990601,242.326370 1024.990601,483.652740 1024.990601,725.000000 
	C1021.840332,725.000000 1018.680603,725.000000 1015.015991,725.000000 
M606.833069,668.387146 
	C610.323181,668.281799 613.830933,668.362854 617.300110,668.035461 
	C626.880920,667.131104 633.879578,660.312256 635.232178,650.848450 
	C636.502808,641.958130 633.822449,634.777222 625.931946,629.773560 
	C626.789673,628.718506 627.528809,627.870300 628.201599,626.972351 
	C636.670349,615.669495 631.682556,600.021118 617.792053,598.027588 
	C606.172119,596.359924 594.122559,597.685303 582.364624,597.685303 
	C582.364624,621.039429 582.364624,644.606445 582.364624,668.038574 
	C590.138916,668.038574 597.594910,668.038574 605.500000,668.098816 
	C605.500000,668.098816 605.949036,668.038574 606.833069,668.387146 
M441.457214,667.090637 
	C443.423431,665.377808 445.389618,663.664978 447.426178,661.890869 
	C453.609497,669.977234 461.638153,671.843079 470.738190,669.071228 
	C479.260254,666.475342 484.455841,660.084473 484.749207,651.479309 
	C485.366333,633.376892 484.936707,615.238708 484.936707,596.932190 
	C477.243652,596.932190 469.789612,596.932190 461.990967,596.932190 
	C461.990967,598.765320 461.990997,600.406738 461.990967,602.048218 
	C461.990723,615.370728 462.035156,628.693481 461.935455,642.015259 
	C461.922607,643.736084 461.163879,645.451294 460.750641,647.169128 
	C460.131989,647.043640 459.513306,646.918213 458.894653,646.792725 
	C458.894653,630.239197 458.894653,613.685608 458.894653,596.991699 
	C450.903564,596.991699 443.482330,596.991699 435.677368,596.991699 
	C435.677368,598.869568 435.677460,600.498901 435.677399,602.128235 
	C435.677032,615.117676 435.720886,628.107361 435.629913,641.096191 
	C435.615723,643.118713 434.985931,645.136963 434.640839,647.157166 
	C433.963867,647.085205 433.286896,647.013306 432.609924,646.941345 
	C432.609924,630.296387 432.609924,613.651428 432.609924,597.023682 
	C424.276550,597.023682 416.846527,597.023682 409.150909,597.023682 
	C409.150909,604.955627 409.096924,612.606201 409.164124,620.255676 
	C409.254761,630.572388 408.649200,640.974182 409.761200,651.184937 
	C411.587341,667.953064 425.428101,674.872009 441.457214,667.090637 
M256.389526,638.499756 
	C256.389526,648.393860 256.389526,658.287903 256.389526,668.853210 
	C268.462677,668.853210 279.739624,669.347412 290.957336,668.742737 
	C309.971100,667.717773 324.015350,653.904724 325.070221,636.052551 
	C326.326385,614.794250 316.141479,600.756958 295.157593,597.798828 
	C282.760101,596.051147 269.960083,597.155823 257.340698,597.008545 
	C257.096283,597.005676 256.847382,597.382507 256.602386,597.589111 
	C256.540985,597.914368 256.426331,598.239563 256.425873,598.564880 
	C256.407318,611.543152 256.399109,624.521423 256.389526,638.499756 
M336.994873,608.504150 
	C325.804413,622.774780 325.294006,641.457886 335.722015,655.095032 
	C346.628906,669.358398 365.104523,674.235535 381.256104,667.114990 
	C397.333435,660.027039 406.315704,643.303711 402.847748,625.332520 
	C400.079712,610.988464 391.319580,600.944458 377.317932,596.716675 
	C361.969086,592.082092 348.466278,596.130432 336.994873,608.504150 
M679.268982,609.776367 
	C673.609558,617.053162 671.371338,625.339783 671.747742,634.484924 
	C672.582031,654.753296 689.121704,670.319519 709.753235,670.150269 
	C729.938538,669.984741 746.356079,654.063660 746.938538,634.089478 
	C747.407776,617.998230 737.961975,603.339905 723.358459,597.497253 
	C708.199463,591.432312 691.295837,595.980164 679.268982,609.776367 
M493.780029,619.144104 
	C493.780029,635.422119 493.780029,651.700195 493.780029,668.184692 
	C501.528625,668.184692 508.939972,668.184692 516.801453,668.184692 
	C516.801453,666.283325 516.801270,664.659119 516.801453,663.034912 
	C516.802490,650.037720 516.679749,637.038147 516.935425,624.045959 
	C516.974854,622.042358 518.675232,618.432068 519.741394,618.381470 
	C523.641113,618.195984 522.954346,621.745544 522.983154,624.279358 
	C523.066528,631.610168 523.013611,638.942505 523.013794,646.274231 
	C523.014038,653.543701 523.013794,660.813171 523.013794,668.163330 
	C530.989136,668.163330 538.405090,668.163330 546.124023,668.163330 
	C546.124023,653.213806 546.132446,638.564575 546.114807,623.915405 
	C546.112183,621.750732 546.173157,619.560791 545.883118,617.426208 
	C544.863342,609.921753 542.266785,603.240356 535.547729,598.887024 
	C518.767883,588.015137 496.255127,598.482422 493.780029,619.144104 
M760.966919,603.488586 
	C755.969910,608.991760 753.548096,615.604492 754.929443,622.785767 
	C756.035645,628.536804 758.814392,633.950867 760.580139,639.599121 
	C761.157043,641.444336 761.622559,644.844299 760.849487,645.288391 
	C759.001038,646.350159 756.386780,646.248230 754.079651,646.261597 
	C753.113281,646.267151 752.141663,645.374695 750.483276,644.546326 
	C750.483276,651.387451 750.669739,657.494507 750.408630,663.582397 
	C750.266968,666.885925 751.536743,668.335205 754.600220,669.118530 
	C765.056030,671.791687 774.134216,669.519775 781.334106,661.451965 
	C788.619873,653.287903 789.407776,643.907410 785.190613,634.034485 
	C783.825500,630.838623 781.806702,627.915344 780.520264,624.694275 
	C778.928162,620.707886 781.434814,617.744995 785.716797,618.197083 
	C786.749878,618.306091 787.768372,618.553040 789.075745,618.787048 
	C789.075745,612.164246 788.938293,606.013062 789.137451,599.872803 
	C789.228027,597.078552 788.080322,596.220642 785.541504,595.682312 
	C776.115356,593.683594 768.125977,596.058899 760.966919,603.488586 
M664.591248,602.744507 
	C664.591248,600.941406 664.591248,599.138245 664.591248,597.025146 
	C656.662598,597.025146 649.100525,597.025146 641.554443,597.025146 
	C641.554443,620.892517 641.554443,644.443848 641.554443,668.216309 
	C649.253784,668.216309 656.652588,668.216309 664.591248,668.216309 
	C664.591248,646.518860 664.591248,625.104004 664.591248,602.744507 
z"/>
<path fill="#FAFAFA" opacity="1.000000" stroke="none" 
	d="
M441.150574,667.303711 
	C425.428101,674.872009 411.587341,667.953064 409.761200,651.184937 
	C408.649200,640.974182 409.254761,630.572388 409.164124,620.255676 
	C409.096924,612.606201 409.150909,604.955627 409.150909,597.023682 
	C416.846527,597.023682 424.276550,597.023682 432.609924,597.023682 
	C432.609924,613.651428 432.609924,630.296387 432.609924,646.941345 
	C433.286896,647.013306 433.963867,647.085205 434.640839,647.157166 
	C434.985931,645.136963 435.615723,643.118713 435.629913,641.096191 
	C435.720886,628.107361 435.677032,615.117676 435.677399,602.128235 
	C435.677460,600.498901 435.677368,598.869568 435.677368,596.991699 
	C443.482330,596.991699 450.903564,596.991699 458.894653,596.991699 
	C458.894653,613.685608 458.894653,630.239197 458.894653,646.792725 
	C459.513306,646.918213 460.131989,647.043640 460.750641,647.169128 
	C461.163879,645.451294 461.922607,643.736084 461.935455,642.015259 
	C462.035156,628.693481 461.990723,615.370728 461.990967,602.048218 
	C461.990997,600.406738 461.990967,598.765320 461.990967,596.932190 
	C469.789612,596.932190 477.243652,596.932190 484.936707,596.932190 
	C484.936707,615.238708 485.366333,633.376892 484.749207,651.479309 
	C484.455841,660.084473 479.260254,666.475342 470.738190,669.071228 
	C461.638153,671.843079 453.609497,669.977234 447.426178,661.890869 
	C445.389618,663.664978 443.423431,665.377808 441.150574,667.303711 
M464.613068,643.770386 
	C464.149200,646.623962 463.743469,649.911011 459.936707,649.651550 
	C456.108124,649.390686 456.191528,646.007751 456.123474,643.168396 
	C456.037292,639.574036 456.102661,635.975952 456.102661,632.314819 
	C449.797241,632.314819 444.228241,632.314819 438.074158,632.314819 
	C438.074158,636.563843 438.520905,640.591919 437.886749,644.441956 
	C437.567139,646.382385 435.525360,649.167908 433.842346,649.510925 
	C430.713898,650.148499 429.920990,647.259888 429.913635,644.520447 
	C429.902679,640.437683 429.910797,636.354919 429.910797,632.360107 
	C423.456055,632.360107 417.877319,632.360107 412.116272,632.360107 
	C412.116272,638.842468 411.678192,645.012085 412.228546,651.092163 
	C412.897583,658.483643 416.078522,664.766052 423.944061,666.794373 
	C432.104340,668.898743 439.493683,667.505066 444.865295,660.200562 
	C445.607910,659.190796 446.494904,658.287231 447.421753,657.210571 
	C448.310089,658.460999 448.989838,659.401428 449.652618,660.353577 
	C453.683777,666.144531 459.349670,668.170593 466.155212,667.414612 
	C473.447510,666.604675 479.301910,662.885193 480.876282,655.837646 
	C482.566803,648.270264 482.341949,640.275024 482.966705,632.289856 
	C476.134735,632.289856 470.715240,632.289856 464.666595,632.289856 
	C464.666595,636.005798 464.666595,639.453125 464.613068,643.770386 
z"/>
<path fill="#F7F7F7" opacity="1.000000" stroke="none" 
	d="
M256.389557,637.999756 
	C256.399109,624.521423 256.407318,611.543152 256.425873,598.564880 
	C256.426331,598.239563 256.540985,597.914368 256.601501,597.585693 
	C256.847382,597.382507 257.096283,597.005676 257.340698,597.008545 
	C269.960083,597.155823 282.760101,596.051147 295.157593,597.798828 
	C316.141479,600.756958 326.326385,614.794250 325.070221,636.052551 
	C324.015350,653.904724 309.971100,667.717773 290.957336,668.742737 
	C279.739624,669.347412 268.462677,668.853210 256.389526,668.853210 
	C256.389526,658.287903 256.389526,648.393860 256.389557,637.999756 
M320.611053,644.727844 
	C321.362946,640.730286 322.114838,636.732666 322.948914,632.298279 
	C316.203003,632.298279 310.449860,632.298279 304.351593,632.298279 
	C303.841583,646.098206 293.885101,648.091431 283.300415,648.757996 
	C283.300415,654.751709 283.300415,660.174255 283.300415,665.538452 
	C299.473969,668.304382 313.881470,660.391235 320.611053,644.727844 
M264.649384,665.916687 
	C268.584198,665.916687 272.519012,665.916687 276.619568,665.916687 
	C276.619568,654.352905 276.619568,643.365356 276.619568,632.299316 
	C270.692352,632.299316 265.130951,632.299316 259.306366,632.299316 
	C259.306366,643.446899 259.306366,654.315979 259.306366,665.580872 
	C260.834503,665.697632 262.265625,665.807007 264.649384,665.916687 
M296.553040,621.726013 
	C291.201935,620.561096 285.850830,619.396240 279.992920,618.121033 
	C279.992920,628.266663 279.992920,636.944580 279.992920,646.042358 
	C283.578766,645.770081 286.851044,645.640747 290.091370,645.248169 
	C295.228851,644.625732 299.428253,642.347412 300.857697,637.071777 
	C302.349396,631.566406 302.232697,626.171570 296.553040,621.726013 
z"/>
<path fill="#FAFAFA" opacity="1.000000" stroke="none" 
	d="
M337.229431,608.236938 
	C348.466278,596.130432 361.969086,592.082092 377.317932,596.716675 
	C391.319580,600.944458 400.079712,610.988464 402.847748,625.332520 
	C406.315704,643.303711 397.333435,660.027039 381.256104,667.114990 
	C365.104523,674.235535 346.628906,669.358398 335.722015,655.095032 
	C325.294006,641.457886 325.804413,622.774780 337.229431,608.236938 
M343.339935,632.007690 
	C339.383636,632.007690 335.427307,632.007690 330.958313,632.007690 
	C331.073486,645.354980 336.490082,655.350586 347.140625,662.085266 
	C359.301025,669.774597 372.158417,669.834900 384.395844,662.358276 
	C395.310944,655.689453 400.925934,645.591919 400.885162,632.260254 
	C394.715912,632.260254 388.955078,632.260254 383.233032,632.260254 
	C379.131134,645.179138 374.524933,649.850647 365.972687,649.852600 
	C357.348846,649.854553 352.391266,644.838806 348.604034,632.007874 
	C347.243195,632.007874 345.764374,632.007874 343.339935,632.007690 
M368.899658,646.916870 
	C370.132507,646.443726 371.445892,646.113892 372.584808,645.473633 
	C378.928833,641.907715 381.635315,633.810913 378.867645,626.900635 
	C376.285583,620.453796 369.216400,616.729492 362.725891,618.396606 
	C355.844421,620.164246 351.327332,626.912964 352.047058,634.299744 
	C352.741730,641.429138 359.592255,648.516418 368.899658,646.916870 
z"/>
<path fill="#FAFAFA" opacity="1.000000" stroke="none" 
	d="
M679.499390,609.505981 
	C691.295837,595.980164 708.199463,591.432312 723.358459,597.497253 
	C737.961975,603.339905 747.407776,617.998230 746.938538,634.089478 
	C746.356079,654.063660 729.938538,669.984741 709.753235,670.150269 
	C689.121704,670.319519 672.582031,654.753296 671.747742,634.484924 
	C671.371338,625.339783 673.609558,617.053162 679.499390,609.505981 
M685.362976,658.153503 
	C697.256348,668.598206 713.669983,670.602051 726.575195,663.184937 
	C738.268311,656.464478 745.648376,643.033264 743.379761,632.007690 
	C740.672974,632.007690 737.871704,632.007690 735.070496,632.007690 
	C732.121704,632.007690 729.172913,632.007690 726.351868,632.007690 
	C724.013184,643.793945 718.176758,649.782898 709.429871,649.850586 
	C700.664368,649.918396 695.147217,644.360168 692.170898,632.341797 
	C686.304932,632.341797 680.402405,632.341797 674.287109,632.341797 
	C674.302490,642.515137 677.829285,650.808960 685.362976,658.153503 
M695.280579,631.732056 
	C695.779297,639.614258 699.331238,644.867554 705.388245,646.680969 
	C710.734863,648.281799 716.511719,646.391113 720.080444,641.872498 
	C723.795593,637.168396 724.272583,630.216431 721.235168,625.045410 
	C718.310730,620.066833 712.895447,617.355774 707.405334,618.121582 
	C701.248779,618.980347 697.116882,623.380432 695.280579,631.732056 
z"/>
<path fill="#FAFAFA" opacity="1.000000" stroke="none" 
	d="
M605.050964,668.038574 
	C597.594910,668.038574 590.138916,668.038574 582.364624,668.038574 
	C582.364624,644.606445 582.364624,621.039429 582.364624,597.685303 
	C594.122559,597.685303 606.172119,596.359924 617.792053,598.027588 
	C631.682556,600.021118 636.670349,615.669495 628.201599,626.972351 
	C627.528809,627.870300 626.789673,628.718506 625.931946,629.773560 
	C633.822449,634.777222 636.502808,641.958130 635.232178,650.848450 
	C633.879578,660.312256 626.880920,667.131104 617.300110,668.035461 
	C613.830933,668.362854 610.323181,668.281799 606.418823,667.742737 
	C606.047363,660.781067 606.090210,654.463867 606.563965,648.117432 
	C608.818481,648.056885 610.678528,648.227905 612.450806,647.909729 
	C613.352234,647.747864 614.095520,646.705750 614.910339,646.061523 
	C614.151001,645.362183 613.467529,644.193359 612.617371,644.055969 
	C610.508728,643.715332 608.324036,643.845886 606.139160,643.332764 
	C606.079102,638.571411 605.995850,634.263916 606.037598,629.957764 
	C606.069946,626.620789 604.754089,622.599731 611.219360,621.803894 
	C608.609741,620.145752 607.086914,619.178162 605.239502,618.004333 
	C605.239502,627.044800 605.239502,635.585388 605.207642,644.499512 
	C605.199097,645.871887 605.222412,646.870789 605.140564,648.335938 
	C605.040588,655.214355 605.045776,661.626465 605.050964,668.038574 
M610.026306,632.063965 
	C609.292053,634.819214 608.557800,637.574463 607.823608,640.329773 
	C608.469849,640.067871 609.116028,639.805969 609.762268,639.544128 
	C612.352295,641.567627 616.774597,643.287659 617.169861,645.674561 
	C618.141968,651.545227 611.910400,649.917175 608.679321,651.468323 
	C608.679321,656.206299 608.679321,660.796509 608.679321,666.001770 
	C611.931519,665.777588 614.896057,665.836304 617.760864,665.330017 
	C629.824097,663.198425 636.257629,651.410400 631.711914,640.004517 
	C629.557861,634.599670 625.751282,632.015259 619.899841,632.001404 
	C616.908569,631.994324 613.917297,632.007568 610.026306,632.063965 
M585.822998,632.196167 
	C585.482544,634.572693 584.880615,636.945679 584.848450,639.326355 
	C584.730408,648.067444 584.801636,656.811096 584.801636,665.565674 
	C591.181519,665.565674 596.734314,665.565674 602.441650,665.565674 
	C602.441650,654.296387 602.441650,643.401733 602.441650,632.042114 
	C597.004944,632.042114 591.885803,632.042114 585.822998,632.196167 
z"/>
<path fill="#FAFAFA" opacity="1.000000" stroke="none" 
	d="
M493.820190,618.707031 
	C496.255127,598.482422 518.767883,588.015137 535.547729,598.887024 
	C542.266785,603.240356 544.863342,609.921753 545.883118,617.426208 
	C546.173157,619.560791 546.112183,621.750732 546.114807,623.915405 
	C546.132446,638.564575 546.124023,653.213806 546.124023,668.163330 
	C538.405090,668.163330 530.989136,668.163330 523.013794,668.163330 
	C523.013794,660.813171 523.014038,653.543701 523.013794,646.274231 
	C523.013611,638.942505 523.066528,631.610168 522.983154,624.279358 
	C522.954346,621.745544 523.641113,618.195984 519.741394,618.381470 
	C518.675232,618.432068 516.974854,622.042358 516.935425,624.045959 
	C516.679749,637.038147 516.802490,650.037720 516.801453,663.034912 
	C516.801270,664.659119 516.801453,666.283325 516.801453,668.184692 
	C508.939972,668.184692 501.528625,668.184692 493.780029,668.184692 
	C493.780029,651.700195 493.780029,635.422119 493.820190,618.707031 
M496.088837,656.447876 
	C496.088837,659.525513 496.088837,662.603210 496.088837,665.538147 
	C502.572205,665.538147 508.154114,665.538147 513.702576,665.538147 
	C513.702576,654.229431 513.702576,643.318054 513.702576,632.304871 
	C507.772095,632.304871 502.194305,632.304871 496.088898,632.304871 
	C496.088898,640.218567 496.088898,647.841248 496.088837,656.447876 
M526.805176,632.192688 
	C526.305786,643.281433 525.806335,654.370117 525.302246,665.561646 
	C532.079285,665.561646 537.616394,665.561646 543.387207,665.561646 
	C543.387207,654.299255 543.387207,643.414978 543.387207,632.041504 
	C537.974243,632.041504 532.863403,632.041504 526.805176,632.192688 
z"/>
<path fill="#FAFAFA" opacity="1.000000" stroke="none" 
	d="
M761.207642,603.226624 
	C768.125977,596.058899 776.115356,593.683594 785.541504,595.682312 
	C788.080322,596.220642 789.228027,597.078552 789.137451,599.872803 
	C788.938293,606.013062 789.075745,612.164246 789.075745,618.787048 
	C787.768372,618.553040 786.749878,618.306091 785.716797,618.197083 
	C781.434814,617.744995 778.928162,620.707886 780.520264,624.694275 
	C781.806702,627.915344 783.825500,630.838623 785.190613,634.034485 
	C789.407776,643.907410 788.619873,653.287903 781.334106,661.451965 
	C774.134216,669.519775 765.056030,671.791687 754.600220,669.118530 
	C751.536743,668.335205 750.266968,666.885925 750.408630,663.582397 
	C750.669739,657.494507 750.483276,651.387451 750.483276,644.546326 
	C752.141663,645.374695 753.113281,646.267151 754.079651,646.261597 
	C756.386780,646.248230 759.001038,646.350159 760.849487,645.288391 
	C761.622559,644.844299 761.157043,641.444336 760.580139,639.599121 
	C758.814392,633.950867 756.035645,628.536804 754.929443,622.785767 
	C753.548096,615.604492 755.969910,608.991760 761.207642,603.226624 
M783.698364,652.832275 
	C785.866211,646.702454 785.409546,640.659485 782.692749,634.862122 
	C782.119446,633.638672 780.433167,632.199524 779.202942,632.145203 
	C772.968201,631.869934 766.714722,632.018494 759.816528,632.018494 
	C761.391907,635.246460 762.772766,637.685547 763.799805,640.265442 
	C765.658936,644.935364 763.161560,649.111389 758.180603,649.705261 
	C756.608704,649.892639 754.974915,649.560608 753.055908,649.447937 
	C753.055908,653.812500 753.243225,657.977417 752.995422,662.116333 
	C752.803772,665.318481 754.233215,666.483582 757.136658,667.083191 
	C768.082153,669.343384 777.934814,664.330078 783.698364,652.832275 
z"/>
<path fill="#F3F3F3" opacity="1.000000" stroke="none" 
	d="
M664.591248,603.216797 
	C664.591248,625.104004 664.591248,646.518860 664.591248,668.216309 
	C656.652588,668.216309 649.253784,668.216309 641.554443,668.216309 
	C641.554443,644.443848 641.554443,620.892517 641.554443,597.025146 
	C649.100525,597.025146 656.662598,597.025146 664.591248,597.025146 
	C664.591248,599.138245 664.591248,600.941406 664.591248,603.216797 
M656.355225,632.035706 
	C652.412842,632.035706 648.470459,632.035706 644.456177,632.035706 
	C644.456177,643.617920 644.456177,654.619141 644.456177,665.486084 
	C650.452393,665.486084 656.010986,665.486084 661.568542,665.486084 
	C661.568542,654.189758 661.568542,643.309814 661.568542,632.261230 
	C659.918945,632.174011 658.614258,632.104980 656.355225,632.035706 
z"/>
<path fill="#86888A" opacity="1.000000" stroke="none" 
	d="
M605.275513,668.068726 
	C605.045776,661.626465 605.040588,655.214355 605.380798,648.346313 
	C605.726196,647.890381 606.133118,648.146606 606.133118,648.146606 
	C606.090210,654.463867 606.047363,660.781067 605.976807,667.568481 
	C605.949036,668.038574 605.500000,668.098816 605.275513,668.068726 
z"/>
<path fill="#86888A" opacity="1.000000" stroke="none" 
	d="
M464.639832,643.335449 
	C464.666595,639.453125 464.666595,636.005798 464.666595,632.289856 
	C470.715240,632.289856 476.134735,632.289856 482.966705,632.289856 
	C482.341949,640.275024 482.566803,648.270264 480.876282,655.837646 
	C479.301910,662.885193 473.447510,666.604675 466.155212,667.414612 
	C459.349670,668.170593 453.683777,666.144531 449.652618,660.353577 
	C448.989838,659.401428 448.310089,658.460999 447.421753,657.210571 
	C446.494904,658.287231 445.607910,659.190796 444.865295,660.200562 
	C439.493683,667.505066 432.104340,668.898743 423.944061,666.794373 
	C416.078522,664.766052 412.897583,658.483643 412.228546,651.092163 
	C411.678192,645.012085 412.116272,638.842468 412.116272,632.360107 
	C417.877319,632.360107 423.456055,632.360107 429.910797,632.360107 
	C429.910797,636.354919 429.902679,640.437683 429.913635,644.520447 
	C429.920990,647.259888 430.713898,650.148499 433.842346,649.510925 
	C435.525360,649.167908 437.567139,646.382385 437.886749,644.441956 
	C438.520905,640.591919 438.074158,636.563843 438.074158,632.314819 
	C444.228241,632.314819 449.797241,632.314819 456.102661,632.314819 
	C456.102661,635.975952 456.037292,639.574036 456.123474,643.168396 
	C456.191528,646.007751 456.108124,649.390686 459.936707,649.651550 
	C463.743469,649.911011 464.149200,646.623962 464.639832,643.335449 
z"/>
<path fill="#86888A" opacity="1.000000" stroke="none" 
	d="
M320.445892,645.089966 
	C313.881470,660.391235 299.473969,668.304382 283.300415,665.538452 
	C283.300415,660.174255 283.300415,654.751709 283.300415,648.757996 
	C293.885101,648.091431 303.841583,646.098206 304.351593,632.298279 
	C310.449860,632.298279 316.203003,632.298279 322.948914,632.298279 
	C322.114838,636.732666 321.362946,640.730286 320.445892,645.089966 
z"/>
<path fill="#86888A" opacity="1.000000" stroke="none" 
	d="
M264.173096,665.916504 
	C262.265625,665.807007 260.834503,665.697632 259.306366,665.580872 
	C259.306366,654.315979 259.306366,643.446899 259.306366,632.299316 
	C265.130951,632.299316 270.692352,632.299316 276.619568,632.299316 
	C276.619568,643.365356 276.619568,654.352905 276.619568,665.916687 
	C272.519012,665.916687 268.584198,665.916687 264.173096,665.916504 
z"/>
<path fill="#3A3738" opacity="1.000000" stroke="none" 
	d="
M296.885986,621.920593 
	C302.232697,626.171570 302.349396,631.566406 300.857697,637.071777 
	C299.428253,642.347412 295.228851,644.625732 290.091370,645.248169 
	C286.851044,645.640747 283.578766,645.770081 279.992920,646.042358 
	C279.992920,636.944580 279.992920,628.266663 279.992920,618.121033 
	C285.850830,619.396240 291.201935,620.561096 296.885986,621.920593 
z"/>
<path fill="#86888A" opacity="1.000000" stroke="none" 
	d="
M343.812744,632.007812 
	C345.764374,632.007874 347.243195,632.007874 348.604034,632.007874 
	C352.391266,644.838806 357.348846,649.854553 365.972687,649.852600 
	C374.524933,649.850647 379.131134,645.179138 383.233032,632.260254 
	C388.955078,632.260254 394.715912,632.260254 400.885162,632.260254 
	C400.925934,645.591919 395.310944,655.689453 384.395844,662.358276 
	C372.158417,669.834900 359.301025,669.774597 347.140625,662.085266 
	C336.490082,655.350586 331.073486,645.354980 330.958313,632.007690 
	C335.427307,632.007690 339.383636,632.007690 343.812744,632.007812 
z"/>
<path fill="#3A3738" opacity="1.000000" stroke="none" 
	d="
M368.485657,646.962830 
	C359.592255,648.516418 352.741730,641.429138 352.047058,634.299744 
	C351.327332,626.912964 355.844421,620.164246 362.725891,618.396606 
	C369.216400,616.729492 376.285583,620.453796 378.867645,626.900635 
	C381.635315,633.810913 378.928833,641.907715 372.584808,645.473633 
	C371.445892,646.113892 370.132507,646.443726 368.485657,646.962830 
z"/>
<path fill="#86888A" opacity="1.000000" stroke="none" 
	d="
M685.109314,657.902954 
	C677.829285,650.808960 674.302490,642.515137 674.287109,632.341797 
	C680.402405,632.341797 686.304932,632.341797 692.170898,632.341797 
	C695.147217,644.360168 700.664368,649.918396 709.429871,649.850586 
	C718.176758,649.782898 724.013184,643.793945 726.351868,632.007690 
	C729.172913,632.007690 732.121704,632.007690 735.070496,632.007690 
	C737.871704,632.007690 740.672974,632.007690 743.379761,632.007690 
	C745.648376,643.033264 738.268311,656.464478 726.575195,663.184937 
	C713.669983,670.602051 697.256348,668.598206 685.109314,657.902954 
z"/>
<path fill="#3A3738" opacity="1.000000" stroke="none" 
	d="
M695.325195,631.335205 
	C697.116882,623.380432 701.248779,618.980347 707.405334,618.121582 
	C712.895447,617.355774 718.310730,620.066833 721.235168,625.045410 
	C724.272583,630.216431 723.795593,637.168396 720.080444,641.872498 
	C716.511719,646.391113 710.734863,648.281799 705.388245,646.680969 
	C699.331238,644.867554 695.779297,639.614258 695.325195,631.335205 
z"/>
<path fill="#87898B" opacity="1.000000" stroke="none" 
	d="
M610.476196,632.037842 
	C613.917297,632.007568 616.908569,631.994324 619.899841,632.001404 
	C625.751282,632.015259 629.557861,634.599670 631.711914,640.004517 
	C636.257629,651.410400 629.824097,663.198425 617.760864,665.330017 
	C614.896057,665.836304 611.931519,665.777588 608.679321,666.001770 
	C608.679321,660.796509 608.679321,656.206299 608.679321,651.468323 
	C611.910400,649.917175 618.141968,651.545227 617.169861,645.674561 
	C616.774597,643.287659 612.352295,641.567627 609.762268,639.544128 
	C609.116028,639.805969 608.469849,640.067871 607.823608,640.329773 
	C608.557800,637.574463 609.292053,634.819214 610.476196,632.037842 
z"/>
<path fill="#87898B" opacity="1.000000" stroke="none" 
	d="
M586.294800,632.119141 
	C591.885803,632.042114 597.004944,632.042114 602.441650,632.042114 
	C602.441650,643.401733 602.441650,654.296387 602.441650,665.565674 
	C596.734314,665.565674 591.181519,665.565674 584.801636,665.565674 
	C584.801636,656.811096 584.730408,648.067444 584.848450,639.326355 
	C584.880615,636.945679 585.482544,634.572693 586.294800,632.119141 
z"/>
<path fill="#86888A" opacity="1.000000" stroke="none" 
	d="
M605.239502,644.125916 
	C605.239502,635.585388 605.239502,627.044800 605.239502,618.004333 
	C607.086914,619.178162 608.609741,620.145752 611.219360,621.803894 
	C604.754089,622.599731 606.069946,626.620789 606.037598,629.957764 
	C605.995850,634.263916 606.079102,638.571411 605.927185,643.473938 
	C605.577087,644.088379 605.408264,644.107178 605.239502,644.125916 
z"/>
<path fill="#3A3738" opacity="1.000000" stroke="none" 
	d="
M605.207642,644.499512 
	C605.408264,644.107178 605.577087,644.088379 605.957886,643.928345 
	C608.324036,643.845886 610.508728,643.715332 612.617371,644.055969 
	C613.467529,644.193359 614.151001,645.362183 614.910339,646.061523 
	C614.095520,646.705750 613.352234,647.747864 612.450806,647.909729 
	C610.678528,648.227905 608.818481,648.056885 606.563965,648.117432 
	C606.133118,648.146606 605.726196,647.890381 605.485962,647.880005 
	C605.222412,646.870789 605.199097,645.871887 605.207642,644.499512 
z"/>
<path fill="#86888A" opacity="1.000000" stroke="none" 
	d="
M496.088867,655.955933 
	C496.088898,647.841248 496.088898,640.218567 496.088898,632.304871 
	C502.194305,632.304871 507.772095,632.304871 513.702576,632.304871 
	C513.702576,643.318054 513.702576,654.229431 513.702576,665.538147 
	C508.154114,665.538147 502.572205,665.538147 496.088837,665.538147 
	C496.088837,662.603210 496.088837,659.525513 496.088867,655.955933 
z"/>
<path fill="#87898B" opacity="1.000000" stroke="none" 
	d="
M527.278809,632.117065 
	C532.863403,632.041504 537.974243,632.041504 543.387207,632.041504 
	C543.387207,643.414978 543.387207,654.299255 543.387207,665.561646 
	C537.616394,665.561646 532.079285,665.561646 525.302246,665.561646 
	C525.806335,654.370117 526.305786,643.281433 527.278809,632.117065 
z"/>
<path fill="#86888A" opacity="1.000000" stroke="none" 
	d="
M783.530884,653.188049 
	C777.934814,664.330078 768.082153,669.343384 757.136658,667.083191 
	C754.233215,666.483582 752.803772,665.318481 752.995422,662.116333 
	C753.243225,657.977417 753.055908,653.812500 753.055908,649.447937 
	C754.974915,649.560608 756.608704,649.892639 758.180603,649.705261 
	C763.161560,649.111389 765.658936,644.935364 763.799805,640.265442 
	C762.772766,637.685547 761.391907,635.246460 759.816528,632.018494 
	C766.714722,632.018494 772.968201,631.869934 779.202942,632.145203 
	C780.433167,632.199524 782.119446,633.638672 782.692749,634.862122 
	C785.409546,640.659485 785.866211,646.702454 783.530884,653.188049 
z"/>
<path fill="#86888A" opacity="1.000000" stroke="none" 
	d="
M656.832397,632.035828 
	C658.614258,632.104980 659.918945,632.174011 661.568542,632.261230 
	C661.568542,643.309814 661.568542,654.189758 661.568542,665.486084 
	C656.010986,665.486084 650.452393,665.486084 644.456177,665.486084 
	C644.456177,654.619141 644.456177,643.617920 644.456177,632.035706 
	C648.470459,632.035706 652.412842,632.035706 656.832397,632.035828 
z"/>
</svg>