<svg version="1.1" id="Layer_1" xmlns="http://www.w3.org/2000/svg" xmlns:xlink="http://www.w3.org/1999/xlink" x="0px" y="0px"
	 width="100%" viewBox="0 0 3512 2484" enable-background="new 0 0 3512 2484" xml:space="preserve">
<path fill="#000000" opacity="1.000000" stroke="none" 
	d="
M3514.000000,4.000000 
	C3514.000000,830.065430 3514.000000,1656.130859 3513.092773,2483.106934 
	C2348.143799,2484.018555 1184.101807,2484.019531 20.060009,2484.020264 
	C17.060768,2484.020264 14.046527,2483.851074 11.070248,2484.112793 
	C9.999773,2484.207275 9.020740,2485.340576 7.999989,2486.000000 
	C7.111109,2486.000000 6.222219,2486.000000 4.996154,2485.111328 
	C4.621223,2480.223633 4.550426,2476.224854 4.550392,2472.225830 
	C4.545460,1902.606445 4.545686,1332.987061 4.545711,763.367615 
	C4.545722,514.388306 4.538883,265.408966 4.603695,16.429657 
	C4.604787,12.233671 5.474903,8.037913 6.830938,3.917092 
	C1176.481567,3.994757 2345.240723,3.997378 3514.000000,4.000000 
M2282.960693,1367.750488 
	C2283.608643,1367.730591 2284.256592,1367.710571 2286.627197,1367.380371 
	C2292.287354,1367.369629 2297.982422,1367.758179 2303.599854,1367.263184 
	C2314.512451,1366.301514 2325.863281,1366.427368 2336.175293,1363.286743 
	C2364.190430,1354.755127 2381.073486,1335.321777 2384.938965,1306.086670 
	C2388.642822,1278.074951 2381.635010,1253.862915 2356.575928,1237.419067 
	C2355.292725,1236.576904 2354.100342,1235.595581 2352.412842,1234.342896 
	C2354.009766,1232.518433 2355.243408,1231.013306 2356.576172,1229.601685 
	C2370.502197,1214.850586 2375.730713,1197.175659 2373.740723,1177.284180 
	C2371.340088,1153.289429 2359.478516,1135.984009 2336.363037,1127.807007 
	C2327.991211,1124.845459 2319.004883,1122.265991 2310.231934,1122.031250 
	C2275.304443,1121.097168 2240.350342,1121.148193 2205.406006,1120.896362 
	C2204.516602,1120.889893 2203.621826,1121.602539 2202.831055,1121.936890 
	C2202.831055,1203.558350 2202.831055,1284.989868 2202.831055,1367.671021 
	C2229.250977,1367.671021 2255.134033,1367.671021 2282.960693,1367.750488 
M1170.255981,1367.850830 
	C1182.579468,1367.908447 1194.967773,1368.808716 1207.214600,1367.867920 
	C1246.286987,1364.866333 1277.971680,1347.914429 1300.573486,1315.506714 
	C1318.961060,1289.141846 1324.042603,1259.290283 1321.223999,1227.913330 
	C1318.553467,1198.186890 1306.461304,1172.854004 1283.840088,1152.946167 
	C1261.113159,1132.945312 1233.833984,1123.465820 1204.304688,1122.199097 
	C1166.380737,1120.572021 1128.363037,1121.121216 1090.385376,1120.775879 
	C1089.124878,1120.764404 1087.860352,1121.221436 1086.302124,1121.516113 
	C1086.302124,1203.312988 1086.302124,1284.812012 1086.302124,1367.264404 
	C1112.292236,1367.264404 1137.862183,1367.264404 1165.107788,1367.535156 
	C1166.230347,1367.515137 1167.352905,1367.495239 1170.255981,1367.850830 
M1321.543335,1002.212463 
	C1321.543335,991.694580 1321.543335,981.176697 1321.543335,969.858398 
	C1346.192383,969.858398 1369.699097,969.858398 1394.091187,969.858398 
	C1394.123901,950.290405 1394.144897,931.566589 1394.087891,911.987549 
	C1369.114990,911.987549 1345.620972,911.987549 1322.217285,911.987549 
	C1322.217285,898.600525 1322.217285,886.091797 1322.217285,872.788757 
	C1346.339233,872.788757 1369.888672,872.788757 1393.695312,872.788757 
	C1393.695312,853.426514 1393.695312,834.880249 1393.695312,815.688477 
	C1369.691284,815.688477 1346.100586,815.688477 1321.634644,815.688477 
	C1321.634644,811.761169 1321.634888,808.478882 1321.634644,805.196594 
	C1321.633667,791.532654 1321.787476,777.866577 1321.601196,764.205200 
	C1321.110840,728.246582 1287.240112,694.606140 1251.253418,694.286621 
	C1237.257324,694.162292 1223.258911,694.293701 1209.261963,694.240662 
	C1206.387939,694.229736 1203.514893,693.915710 1199.946777,693.699341 
	C1199.946777,669.511353 1199.946777,645.967102 1199.946777,622.229675 
	C1180.667480,622.229675 1162.133301,622.229675 1142.446655,622.229675 
	C1142.446655,646.382996 1142.446655,670.125244 1142.446655,693.577454 
	C1128.801392,693.577454 1116.322021,693.577454 1103.116211,693.577454 
	C1103.116211,669.395386 1103.116211,645.893860 1103.116211,622.171326 
	C1083.780396,622.171326 1065.204956,622.171326 1045.567749,622.171326 
	C1045.567749,646.345337 1045.567749,670.161438 1045.567749,693.738037 
	C1031.930054,693.738037 1019.362610,693.738037 1006.144897,693.738037 
	C1006.144897,669.658752 1006.144897,646.099365 1006.144897,622.198608 
	C986.963501,622.198608 968.448853,622.198608 948.780151,622.198608 
	C948.780151,646.303894 948.780151,670.033325 948.780151,693.648682 
	C935.137878,693.648682 922.660278,693.648682 909.501709,693.648682 
	C909.501709,669.510681 909.501709,645.979553 909.501709,622.478394 
	C890.017822,622.478394 871.244751,622.478394 851.670532,622.478394 
	C851.670532,646.673584 851.670532,670.193848 851.670532,693.836304 
	C838.285889,693.836304 825.722595,693.836304 812.150208,693.836304 
	C812.150208,669.645081 812.150208,645.863647 812.150208,622.407593 
	C792.617676,622.407593 774.104553,622.407593 754.886902,622.407593 
	C754.886902,646.531677 754.886902,670.046509 754.886902,694.264404 
	C745.559875,694.264404 736.840637,695.120544 728.337524,694.126953 
	C668.133728,687.092468 626.762329,726.168213 633.834229,788.096985 
	C634.845032,796.948608 633.974121,806.015076 633.974121,815.930298 
	C609.454773,815.930298 585.623596,815.930298 562.057983,815.930298 
	C562.057983,835.428040 562.057983,853.965332 562.057983,873.315796 
	C586.135376,873.315796 609.651306,873.315796 633.453918,873.315796 
	C633.453918,886.629333 633.453918,899.109985 633.453918,912.325439 
	C609.414612,912.325439 585.881165,912.325439 562.081055,912.325439 
	C562.081055,931.882263 562.081055,950.695435 562.081055,970.320679 
	C586.191711,970.320679 609.716248,970.320679 633.594604,970.320679 
	C633.594604,983.691101 633.594604,996.243713 633.594604,1009.768372 
	C609.475952,1009.768372 585.666321,1009.768372 562.054932,1009.768372 
	C562.054932,1029.258911 562.054932,1047.772949 562.054932,1067.062988 
	C586.133118,1067.062988 609.651489,1067.062988 633.510254,1067.062988 
	C633.510254,1080.356323 633.510254,1092.856323 633.510254,1106.058838 
	C609.504395,1106.058838 585.949036,1106.058838 561.979675,1106.058838 
	C561.979675,1125.630371 561.979675,1144.496094 561.979675,1164.119873 
	C586.007141,1164.119873 609.547363,1164.119873 633.230164,1164.119873 
	C633.230164,1177.590820 633.230164,1190.288574 633.230164,1203.776611 
	C608.979065,1203.776611 585.462891,1203.776611 562.045532,1203.776611 
	C562.045532,1223.087280 562.045532,1241.582520 562.045532,1260.760986 
	C586.136414,1260.760986 609.675110,1260.760986 633.974060,1260.760986 
	C633.974060,1264.738647 633.973633,1268.024170 633.974121,1271.309692 
	C633.976135,1284.973633 633.893555,1298.638184 633.997375,1312.301392 
	C634.265930,1347.653442 668.090698,1381.610352 703.387085,1381.930908 
	C718.049683,1382.064087 732.714539,1381.924438 747.378052,1381.989868 
	C749.891296,1382.001099 752.402649,1382.421509 755.646851,1382.720215 
	C755.646851,1406.869263 755.646851,1430.380127 755.646851,1453.893066 
	C774.953796,1453.893066 793.453491,1453.893066 812.573242,1453.893066 
	C812.573242,1429.834595 812.573242,1406.279297 812.573242,1382.667603 
	C826.003845,1382.667603 838.794922,1382.667603 852.356689,1382.667603 
	C852.356689,1406.857910 852.356689,1430.348999 852.356689,1454.019043 
	C871.745667,1454.019043 890.340210,1454.019043 909.965698,1454.019043 
	C909.965698,1429.873169 909.965698,1406.090820 909.965698,1381.619629 
	C919.277283,1381.619629 927.568665,1381.545288 935.858154,1381.637695 
	C947.285217,1381.764893 949.236328,1383.354492 949.537170,1395.005615 
	C949.863770,1407.657227 949.408569,1420.328369 949.331238,1432.991211 
	C949.289185,1439.881836 949.323730,1446.772827 949.323730,1454.124512 
	C974.471130,1454.124512 998.935303,1454.124512 1023.884949,1454.124512 
	C1023.884949,1434.160278 1023.524048,1414.840576 1024.054443,1395.545166 
	C1024.281128,1387.301147 1021.856567,1381.471436 1016.105896,1375.368042 
	C979.501831,1336.517944 959.241394,1290.407715 958.196472,1236.782227 
	C957.003296,1175.547729 978.880127,1122.913452 1023.100769,1081.047607 
	C1082.797729,1024.529541 1153.013916,1005.241760 1233.190552,1028.245605 
	C1255.840820,1034.744263 1275.970093,1046.524292 1295.139771,1059.921509 
	C1301.658936,1064.477661 1308.252441,1066.663940 1316.399048,1066.518677 
	C1338.717773,1066.120361 1361.052612,1066.615479 1383.380981,1066.750244 
	C1386.650146,1066.770020 1389.919434,1066.753052 1393.647339,1066.753052 
	C1393.647339,1047.319702 1393.647339,1028.790405 1393.647339,1009.637695 
	C1389.664795,1009.637695 1386.027222,1009.620178 1382.389893,1009.640747 
	C1366.394043,1009.731079 1350.397705,1009.945679 1334.402832,1009.861450 
	C1329.520386,1009.835754 1324.124390,1010.098022 1321.543335,1002.212463 
M1870.014282,1270.999756 
	C1870.014282,1221.158325 1870.014282,1171.316895 1870.014282,1121.313965 
	C1842.893799,1121.313965 1817.065186,1121.313965 1790.401978,1121.313965 
	C1790.401978,1125.167847 1790.402100,1128.425537 1790.402100,1131.683228 
	C1790.402100,1158.011475 1790.402222,1184.339600 1790.402100,1210.667847 
	C1790.401855,1233.330078 1790.467529,1255.992798 1790.338135,1278.654297 
	C1790.315674,1282.596680 1789.928589,1286.675537 1788.782227,1290.406372 
	C1788.304199,1291.962280 1785.481567,1293.400513 1783.562378,1293.652222 
	C1782.625244,1293.775024 1780.537231,1291.162231 1780.323730,1289.602539 
	C1779.740234,1285.334473 1779.747437,1280.968262 1779.744629,1276.640747 
	C1779.713013,1228.650146 1779.723755,1180.659424 1779.723145,1132.668823 
	C1779.723022,1129.073486 1779.723022,1125.478149 1779.723022,1121.381592 
	C1752.813110,1121.381592 1726.708984,1121.381592 1700.079468,1121.381592 
	C1700.079468,1125.694092 1700.079468,1129.337036 1700.079468,1132.979980 
	C1700.079346,1180.970703 1700.096191,1228.961304 1700.048218,1276.952026 
	C1700.044189,1280.933228 1700.042358,1285.005249 1699.241943,1288.869995 
	C1698.392578,1292.970459 1695.739868,1295.275391 1690.089355,1292.819580 
	C1689.824341,1287.415894 1689.291382,1281.503296 1689.282837,1275.590088 
	C1689.213501,1227.599487 1689.251465,1179.608765 1689.223389,1131.618164 
	C1689.221313,1128.112549 1688.958984,1124.607300 1688.820068,1121.162354 
	C1661.994995,1121.162354 1636.422363,1121.162354 1610.340454,1121.162354 
	C1610.138794,1123.806641 1609.819824,1126.043701 1609.818970,1128.280762 
	C1609.799683,1183.270020 1609.722168,1238.259644 1609.924805,1293.248169 
	C1609.954102,1301.195557 1610.664795,1309.279663 1612.254150,1317.056274 
	C1617.129150,1340.908447 1628.678467,1360.060791 1652.832764,1368.663086 
	C1678.068726,1377.650757 1715.148071,1376.059570 1736.865723,1346.930420 
	C1737.589966,1345.958984 1738.535034,1345.152222 1739.885620,1343.735474 
	C1747.307983,1353.212280 1755.109497,1361.283203 1765.504272,1366.331177 
	C1801.108276,1383.620972 1856.693848,1370.174805 1867.726685,1315.775513 
	C1870.534424,1301.931641 1869.359497,1287.280029 1870.014282,1270.999756 
M2571.029541,1134.076782 
	C2519.622314,1167.132568 2500.450928,1219.645386 2513.091797,1274.765625 
	C2529.955078,1348.298096 2608.476074,1391.479248 2680.311035,1366.434692 
	C2727.787598,1349.882446 2757.563232,1315.824463 2765.634033,1265.894775 
	C2774.438477,1211.423340 2755.001953,1166.873169 2709.397217,1136.250977 
	C2665.195801,1106.571045 2618.551270,1108.533447 2571.029541,1134.076782 
M1560.032837,1160.940552 
	C1535.275269,1132.219360 1504.507080,1116.108765 1466.075073,1115.287109 
	C1381.380859,1113.476562 1318.817749,1185.859741 1334.473022,1268.999390 
	C1349.306030,1347.772095 1436.056152,1399.883423 1517.783203,1360.289673 
	C1602.097900,1319.442383 1608.879028,1217.684082 1560.032837,1160.940552 
M1942.179688,1127.233398 
	C1921.505249,1139.210815 1908.018677,1156.893921 1902.429810,1179.955200 
	C1899.945557,1190.205933 1898.932983,1201.032471 1898.853760,1211.609619 
	C1898.489136,1260.264404 1898.681763,1308.923340 1898.706665,1357.580811 
	C1898.708130,1360.496826 1898.988159,1363.412476 1899.164795,1366.834961 
	C1925.539551,1366.834961 1951.346069,1366.834961 1978.171387,1366.834961 
	C1978.171387,1362.875854 1978.171387,1359.309082 1978.171387,1355.742310 
	C1978.171997,1308.751221 1978.129150,1261.759888 1978.241699,1214.769043 
	C1978.252808,1210.168213 1978.905029,1205.504395 1979.836060,1200.988647 
	C1980.748535,1196.563843 1984.010742,1194.317383 1988.535889,1194.213257 
	C1993.404175,1194.101318 1997.196167,1196.132935 1998.287720,1201.019653 
	C1999.290527,1205.508423 1999.858887,1210.190918 1999.869751,1214.789673 
	C1999.980591,1261.780518 1999.938477,1308.771729 1999.939087,1355.762817 
	C1999.939087,1359.323242 1999.938965,1362.883667 1999.938965,1366.858643 
	C2026.814087,1366.858643 2052.633789,1366.858643 2079.035400,1366.858643 
	C2079.218506,1364.479980 2079.493652,1362.569458 2079.494385,1360.658813 
	C2079.510010,1310.334961 2079.701172,1260.009644 2079.323975,1209.688599 
	C2079.244629,1199.107788 2078.027588,1188.320679 2075.662354,1178.012329 
	C2068.712158,1147.720459 2051.099854,1126.219482 2020.224121,1118.615479 
	C1994.025269,1112.163330 1967.978760,1113.672485 1942.179688,1127.233398 
M2779.921143,1293.549805 
	C2779.921143,1316.823608 2779.921143,1340.097290 2779.921143,1363.447021 
	C2797.149902,1372.543091 2814.840820,1374.702393 2833.547363,1372.128418 
	C2878.787598,1365.903687 2912.411133,1322.167236 2906.749512,1276.936279 
	C2904.588623,1259.670776 2897.610107,1244.464355 2889.064209,1229.665649 
	C2886.102539,1224.537598 2883.155762,1219.086060 2881.815918,1213.401855 
	C2878.977783,1201.363647 2888.202637,1192.376953 2900.321045,1194.646606 
	C2904.074707,1195.349731 2907.770264,1196.361938 2911.743896,1197.291382 
	C2911.743896,1171.321045 2911.743896,1146.115234 2911.743896,1121.030762 
	C2901.242676,1116.894409 2890.768555,1115.596680 2880.063477,1115.261353 
	C2832.367920,1113.767212 2793.773438,1156.406006 2793.773438,1199.550293 
	C2793.773438,1220.076782 2799.198975,1238.911133 2808.629883,1256.862915 
	C2811.874023,1263.038208 2815.303711,1269.156982 2817.971924,1275.582642 
	C2820.924561,1282.693604 2818.323242,1288.548950 2811.452148,1292.077759 
	C2804.970215,1295.406982 2798.531738,1294.563110 2792.270996,1291.507324 
	C2788.502686,1289.668091 2784.901123,1287.486694 2780.291016,1284.944092 
	C2780.125488,1287.975952 2780.023682,1289.839600 2779.921143,1293.549805 
M2485.177490,1209.000488 
	C2485.177490,1179.814819 2485.177490,1150.629150 2485.177490,1121.276855 
	C2458.031494,1121.276855 2432.243896,1121.276855 2406.507324,1121.276855 
	C2406.507324,1203.549561 2406.507324,1285.253784 2406.507324,1366.906128 
	C2432.224609,1368.544189 2477.348145,1367.866821 2485.177490,1365.620972 
	C2485.177490,1314.196533 2485.177490,1262.598511 2485.177490,1209.000488 
z"/>
<path fill="#707070" opacity="1.000000" stroke="none" 
	d="
M3514.000000,3.000000 
	C2345.240723,3.997378 1176.481567,3.994757 6.841344,3.456435 
	C5.960310,2.920735 6.000000,2.000000 6.000000,2.000000 
	C1175.333374,2.000000 2344.666748,2.000000 3514.000000,3.000000 
z"/>
<path fill="#303030" opacity="1.000000" stroke="none" 
	d="
M8.907253,2486.000000 
	C9.020740,2485.340576 9.999773,2484.207275 11.070248,2484.112793 
	C14.046527,2483.851074 17.060768,2484.020264 20.060009,2484.020264 
	C1184.101807,2484.019531 2348.143799,2484.018555 3513.092773,2484.008789 
	C3513.666748,2484.666504 3513.368652,2485.887695 3512.994873,2485.911133 
	C3510.339600,2486.077881 3507.668457,2486.000000 3505.002441,2486.000000 
	C2339.939697,2486.000000 1174.877197,2486.000000 8.907253,2486.000000 
z"/>
<path fill="#979797" opacity="1.000000" stroke="none" 
	d="
M5.000000,2.000000 
	C6.000000,2.000000 5.960310,2.920735 5.949904,3.381392 
	C5.474903,8.037913 4.604787,12.233671 4.603695,16.429657 
	C4.538883,265.408966 4.545722,514.388306 4.545711,763.367615 
	C4.545686,1332.987061 4.545460,1902.606445 4.550392,2472.225830 
	C4.550426,2476.224854 4.621223,2480.223633 4.329498,2485.111328 
	C3.333349,2485.666748 2.112401,2485.368164 2.088922,2484.994385 
	C1.922029,2482.338135 2.000000,2479.666748 2.000000,2477.000000 
	C2.000000,1655.000000 1.996893,833.000000 2.123264,11.000019 
	C2.123714,8.073306 -0.182974,4.218598 5.000000,2.000000 
z"/>
<path fill="#EFEFEF" opacity="1.000000" stroke="none" 
	d="
M1321.713135,1003.121948 
	C1324.124390,1010.098022 1329.520386,1009.835754 1334.402832,1009.861450 
	C1350.397705,1009.945679 1366.394043,1009.731079 1382.389893,1009.640747 
	C1386.027222,1009.620178 1389.664795,1009.637695 1393.647339,1009.637695 
	C1393.647339,1028.790405 1393.647339,1047.319702 1393.647339,1066.753052 
	C1389.919434,1066.753052 1386.650146,1066.770020 1383.380981,1066.750244 
	C1361.052612,1066.615479 1338.717773,1066.120361 1316.399048,1066.518677 
	C1308.252441,1066.663940 1301.658936,1064.477661 1295.139771,1059.921509 
	C1275.970093,1046.524292 1255.840820,1034.744263 1233.190552,1028.245605 
	C1153.013916,1005.241760 1082.797729,1024.529541 1023.100769,1081.047607 
	C978.880127,1122.913452 957.003296,1175.547729 958.196472,1236.782227 
	C959.241394,1290.407715 979.501831,1336.517944 1016.105896,1375.368042 
	C1021.856567,1381.471436 1024.281128,1387.301147 1024.054443,1395.545166 
	C1023.524048,1414.840576 1023.884949,1434.160278 1023.884949,1454.124512 
	C998.935303,1454.124512 974.471130,1454.124512 949.323730,1454.124512 
	C949.323730,1446.772827 949.289185,1439.881836 949.331238,1432.991211 
	C949.408569,1420.328369 949.863770,1407.657227 949.537170,1395.005615 
	C949.236328,1383.354492 947.285217,1381.764893 935.858154,1381.637695 
	C927.568665,1381.545288 919.277283,1381.619629 909.965698,1381.619629 
	C909.965698,1406.090820 909.965698,1429.873169 909.965698,1454.019043 
	C890.340210,1454.019043 871.745667,1454.019043 852.356689,1454.019043 
	C852.356689,1430.348999 852.356689,1406.857910 852.356689,1382.667603 
	C838.794922,1382.667603 826.003845,1382.667603 812.573242,1382.667603 
	C812.573242,1406.279297 812.573242,1429.834595 812.573242,1453.893066 
	C793.453491,1453.893066 774.953796,1453.893066 755.646851,1453.893066 
	C755.646851,1430.380127 755.646851,1406.869263 755.646851,1382.720215 
	C752.402649,1382.421509 749.891296,1382.001099 747.378052,1381.989868 
	C732.714539,1381.924438 718.049683,1382.064087 703.387085,1381.930908 
	C668.090698,1381.610352 634.265930,1347.653442 633.997375,1312.301392 
	C633.893555,1298.638184 633.976135,1284.973633 633.974121,1271.309692 
	C633.973633,1268.024170 633.974060,1264.738647 633.974060,1260.760986 
	C609.675110,1260.760986 586.136414,1260.760986 562.045532,1260.760986 
	C562.045532,1241.582520 562.045532,1223.087280 562.045532,1203.776611 
	C585.462891,1203.776611 608.979065,1203.776611 633.230164,1203.776611 
	C633.230164,1190.288574 633.230164,1177.590820 633.230164,1164.119873 
	C609.547363,1164.119873 586.007141,1164.119873 561.979675,1164.119873 
	C561.979675,1144.496094 561.979675,1125.630371 561.979675,1106.058838 
	C585.949036,1106.058838 609.504395,1106.058838 633.510254,1106.058838 
	C633.510254,1092.856323 633.510254,1080.356323 633.510254,1067.062988 
	C609.651489,1067.062988 586.133118,1067.062988 562.054932,1067.062988 
	C562.054932,1047.772949 562.054932,1029.258911 562.054932,1009.768372 
	C585.666321,1009.768372 609.475952,1009.768372 633.594604,1009.768372 
	C633.594604,996.243713 633.594604,983.691101 633.594604,970.320679 
	C609.716248,970.320679 586.191711,970.320679 562.081055,970.320679 
	C562.081055,950.695435 562.081055,931.882263 562.081055,912.325439 
	C585.881165,912.325439 609.414612,912.325439 633.453918,912.325439 
	C633.453918,899.109985 633.453918,886.629333 633.453918,873.315796 
	C609.651306,873.315796 586.135376,873.315796 562.057983,873.315796 
	C562.057983,853.965332 562.057983,835.428040 562.057983,815.930298 
	C585.623596,815.930298 609.454773,815.930298 633.974121,815.930298 
	C633.974121,806.015076 634.845032,796.948608 633.834229,788.096985 
	C626.762329,726.168213 668.133728,687.092468 728.337524,694.126953 
	C736.840637,695.120544 745.559875,694.264404 754.886902,694.264404 
	C754.886902,670.046509 754.886902,646.531677 754.886902,622.407593 
	C774.104553,622.407593 792.617676,622.407593 812.150208,622.407593 
	C812.150208,645.863647 812.150208,669.645081 812.150208,693.836304 
	C825.722595,693.836304 838.285889,693.836304 851.670532,693.836304 
	C851.670532,670.193848 851.670532,646.673584 851.670532,622.478394 
	C871.244751,622.478394 890.017822,622.478394 909.501709,622.478394 
	C909.501709,645.979553 909.501709,669.510681 909.501709,693.648682 
	C922.660278,693.648682 935.137878,693.648682 948.780151,693.648682 
	C948.780151,670.033325 948.780151,646.303894 948.780151,622.198608 
	C968.448853,622.198608 986.963501,622.198608 1006.144897,622.198608 
	C1006.144897,646.099365 1006.144897,669.658752 1006.144897,693.738037 
	C1019.362610,693.738037 1031.930054,693.738037 1045.567749,693.738037 
	C1045.567749,670.161438 1045.567749,646.345337 1045.567749,622.171326 
	C1065.204956,622.171326 1083.780396,622.171326 1103.116211,622.171326 
	C1103.116211,645.893860 1103.116211,669.395386 1103.116211,693.577454 
	C1116.322021,693.577454 1128.801392,693.577454 1142.446655,693.577454 
	C1142.446655,670.125244 1142.446655,646.382996 1142.446655,622.229675 
	C1162.133301,622.229675 1180.667480,622.229675 1199.946777,622.229675 
	C1199.946777,645.967102 1199.946777,669.511353 1199.946777,693.699341 
	C1203.514893,693.915710 1206.387939,694.229736 1209.261963,694.240662 
	C1223.258911,694.293701 1237.257324,694.162292 1251.253418,694.286621 
	C1287.240112,694.606140 1321.110840,728.246582 1321.601196,764.205200 
	C1321.787476,777.866577 1321.633667,791.532654 1321.634644,805.196594 
	C1321.634888,808.478882 1321.634644,811.761169 1321.634644,815.688477 
	C1346.100586,815.688477 1369.691284,815.688477 1393.695312,815.688477 
	C1393.695312,834.880249 1393.695312,853.426514 1393.695312,872.788757 
	C1369.888672,872.788757 1346.339233,872.788757 1322.217285,872.788757 
	C1322.217285,886.091797 1322.217285,898.600525 1322.217285,911.987549 
	C1345.620972,911.987549 1369.114990,911.987549 1394.087891,911.987549 
	C1394.144897,931.566589 1394.123901,950.290405 1394.091187,969.858398 
	C1369.699097,969.858398 1346.192383,969.858398 1321.543335,969.858398 
	C1321.543335,981.176697 1321.543335,991.694580 1321.713135,1003.121948 
M1054.838135,678.930176 
	C1054.838135,686.863464 1054.838135,694.796692 1054.838135,703.087830 
	C1035.378784,703.087830 1016.912537,703.087830 997.339722,703.087830 
	C997.339722,678.794495 997.339722,655.004150 997.339722,631.173218 
	C983.722351,631.173218 971.222473,631.173218 958.038696,631.173218 
	C957.964661,655.532471 958.070129,679.319580 957.977478,702.919617 
	C938.002563,702.919617 919.523071,702.919617 900.289795,702.919617 
	C900.289795,678.684082 900.289795,655.130737 900.289795,631.101196 
	C887.024109,631.101196 874.532288,631.101196 860.883728,631.101196 
	C860.883728,655.445374 860.883728,679.290344 860.883728,702.927490 
	C841.215637,702.927490 822.713074,702.927490 803.487671,702.927490 
	C803.487671,678.694519 803.487671,655.138855 803.487671,630.627808 
	C789.995483,630.604980 777.257690,630.385864 763.778442,630.798462 
	C763.778442,655.656860 763.778442,679.201599 763.778442,703.615051 
	C759.772034,703.615051 756.513855,703.614990 753.255676,703.615112 
	C737.589844,703.615540 721.813232,704.805298 706.282043,703.359375 
	C677.362061,700.667114 641.029602,734.229736 642.828186,766.415894 
	C643.756592,783.029785 643.019348,799.738464 642.958069,816.404053 
	C642.948792,818.921387 642.520935,821.437134 642.212585,824.749573 
	C618.055603,824.749573 594.530762,824.749573 570.734497,824.749573 
	C570.734497,838.114990 570.734497,850.609436 570.734497,863.861816 
	C594.760132,863.861816 618.311768,863.861816 642.373169,863.861816 
	C642.373169,883.443115 642.373169,902.261169 642.373169,921.847046 
	C618.226013,921.847046 594.682251,921.847046 570.758667,921.847046 
	C570.758667,935.103882 570.758667,947.589111 570.758667,961.313904 
	C595.025635,961.313904 618.806458,961.313904 642.574219,961.313904 
	C642.574219,980.812744 642.574219,999.065979 642.574219,1018.469666 
	C618.411865,1018.469666 594.633911,1018.469666 570.801147,1018.469666 
	C570.801147,1032.129883 570.801147,1044.626343 570.801147,1057.888916 
	C594.887451,1057.888916 618.430969,1057.888916 642.268372,1057.888916 
	C642.268372,1077.467651 642.268372,1096.264771 642.268372,1115.878052 
	C618.028503,1115.878052 594.499146,1115.878052 570.861694,1115.878052 
	C570.861694,1129.192139 570.861694,1141.670898 570.861694,1155.005615 
	C594.998901,1155.005615 618.531860,1155.005615 642.493042,1155.005615 
	C642.493042,1174.390991 642.493042,1192.904907 642.493042,1212.555176 
	C618.228516,1212.555176 594.436279,1212.555176 570.901978,1212.555176 
	C570.901978,1226.202515 570.901978,1238.703491 570.901978,1251.976562 
	C595.076538,1251.976562 618.606018,1251.976562 642.989441,1251.976562 
	C642.989441,1256.033691 642.989258,1259.314575 642.989563,1262.595459 
	C642.991150,1278.594604 643.658630,1294.627563 642.852234,1310.585815 
	C641.305847,1341.187988 675.624268,1374.614380 704.944031,1372.980469 
	C721.558105,1372.054443 738.266357,1372.793091 754.932007,1372.841187 
	C757.828918,1372.849487 760.724976,1373.152100 764.351013,1373.360718 
	C764.351013,1397.665894 764.351013,1421.215332 764.351013,1445.350830 
	C777.880249,1445.905396 790.608337,1445.702026 804.131042,1445.587891 
	C804.131042,1420.620483 804.131042,1397.105347 804.131042,1373.501465 
	C823.421631,1373.501465 841.887512,1373.501465 861.230347,1373.501465 
	C861.230347,1397.694702 861.230347,1421.222900 861.230347,1445.175049 
	C874.603333,1445.175049 887.083679,1445.175049 900.344116,1445.175049 
	C900.344116,1421.134888 900.344116,1397.594849 900.344116,1372.884155 
	C912.977417,1372.674927 924.888123,1372.204834 936.791443,1372.348877 
	C952.062988,1372.533569 957.858704,1378.180786 958.231628,1393.650024 
	C958.584961,1408.304199 958.150391,1422.976807 958.144348,1437.641235 
	C958.143311,1440.170166 958.551819,1442.699341 958.779297,1445.322998 
	C977.655884,1445.322998 995.831360,1445.322998 1014.636353,1445.322998 
	C1014.636353,1432.792603 1013.764465,1420.752441 1014.858765,1408.893677 
	C1016.203308,1394.322266 1011.392517,1383.678589 1001.722473,1372.494995 
	C960.855469,1325.232300 943.695007,1269.704712 950.462952,1207.620605 
	C956.199402,1154.998657 978.826172,1109.746338 1017.532898,1073.793823 
	C1080.467407,1015.337463 1153.659058,995.520630 1237.222778,1020.073425 
	C1260.490723,1026.910034 1281.078735,1039.238525 1300.902344,1052.848389 
	C1305.782837,1056.199097 1310.645996,1057.802979 1316.641968,1057.733276 
	C1336.637085,1057.500610 1356.638306,1057.800415 1376.637085,1057.838135 
	C1379.199463,1057.842896 1381.762329,1057.504517 1384.483032,1057.314087 
	C1384.483032,1044.126587 1384.483032,1031.626709 1384.483032,1018.622864 
	C1376.232056,1018.622864 1368.620850,1018.655945 1361.009766,1018.614929 
	C1350.356934,1018.557556 1339.667603,1018.964661 1329.061646,1018.213867 
	C1317.835449,1017.419128 1312.652466,1012.072205 1312.222046,1001.021057 
	C1311.718262,988.085266 1312.104370,975.114807 1312.104370,960.956055 
	C1336.698853,960.956055 1360.514526,960.956055 1384.678589,960.956055 
	C1384.678589,947.303040 1384.678589,934.870056 1384.678589,921.304565 
	C1360.347168,921.304565 1336.550659,921.304565 1312.935059,921.304565 
	C1312.935059,901.657227 1312.935059,883.154053 1312.935059,863.927185 
	C1337.140381,863.927185 1360.705078,863.927185 1384.137085,863.927185 
	C1385.948608,852.445557 1385.617676,831.992859 1383.389160,824.212646 
	C1360.134033,824.212646 1336.615234,824.212646 1312.282349,824.212646 
	C1312.282349,820.105164 1312.282471,816.847107 1312.282227,813.589050 
	C1312.280762,796.923218 1311.635620,780.226990 1312.422852,763.598511 
	C1313.721069,736.175903 1280.627075,702.247803 1252.383057,703.513733 
	C1238.744507,704.125061 1225.055908,703.616272 1211.389893,703.615112 
	C1205.124268,703.614563 1198.858643,703.615051 1191.466431,703.615051 
	C1191.466431,679.026917 1191.466431,655.242615 1191.466431,631.080078 
	C1177.824585,631.080078 1165.338989,631.080078 1151.729004,631.080078 
	C1151.729004,655.341248 1151.729004,679.123413 1151.729004,703.046753 
	C1132.106323,703.046753 1113.614380,703.046753 1094.015015,703.046753 
	C1094.015015,678.736328 1094.015015,654.971375 1094.015015,630.494934 
	C1080.447998,630.907715 1067.983154,630.002014 1054.838013,631.061096 
	C1054.838013,647.047729 1054.838013,662.000305 1054.838135,678.930176 
z"/>
<path fill="#F8F8F8" opacity="1.000000" stroke="none" 
	d="
M1870.014282,1271.999634 
	C1869.359497,1287.280029 1870.534424,1301.931641 1867.726685,1315.775513 
	C1856.693848,1370.174805 1801.108276,1383.620972 1765.504272,1366.331177 
	C1755.109497,1361.283203 1747.307983,1353.212280 1739.885620,1343.735474 
	C1738.535034,1345.152222 1737.589966,1345.958984 1736.865723,1346.930420 
	C1715.148071,1376.059570 1678.068726,1377.650757 1652.832764,1368.663086 
	C1628.678467,1360.060791 1617.129150,1340.908447 1612.254150,1317.056274 
	C1610.664795,1309.279663 1609.954102,1301.195557 1609.924805,1293.248169 
	C1609.722168,1238.259644 1609.799683,1183.270020 1609.818970,1128.280762 
	C1609.819824,1126.043701 1610.138794,1123.806641 1610.340454,1121.162354 
	C1636.422363,1121.162354 1661.994995,1121.162354 1688.820068,1121.162354 
	C1688.958984,1124.607300 1689.221313,1128.112549 1689.223389,1131.618164 
	C1689.251465,1179.608765 1689.213501,1227.599487 1689.282837,1275.590088 
	C1689.291382,1281.503296 1689.824341,1287.415894 1690.089355,1292.819580 
	C1695.739868,1295.275391 1698.392578,1292.970459 1699.241943,1288.869995 
	C1700.042358,1285.005249 1700.044189,1280.933228 1700.048218,1276.952026 
	C1700.096191,1228.961304 1700.079346,1180.970703 1700.079468,1132.979980 
	C1700.079468,1129.337036 1700.079468,1125.694092 1700.079468,1121.381592 
	C1726.708984,1121.381592 1752.813110,1121.381592 1779.723022,1121.381592 
	C1779.723022,1125.478149 1779.723022,1129.073486 1779.723145,1132.668823 
	C1779.723755,1180.659424 1779.713013,1228.650146 1779.744629,1276.640747 
	C1779.747437,1280.968262 1779.740234,1285.334473 1780.323730,1289.602539 
	C1780.537231,1291.162231 1782.625244,1293.775024 1783.562378,1293.652222 
	C1785.481567,1293.400513 1788.304199,1291.962280 1788.782227,1290.406372 
	C1789.928589,1286.675537 1790.315674,1282.596680 1790.338135,1278.654297 
	C1790.467529,1255.992798 1790.401855,1233.330078 1790.402100,1210.667847 
	C1790.402222,1184.339600 1790.402100,1158.011475 1790.402100,1131.683228 
	C1790.402100,1128.425537 1790.401978,1125.167847 1790.401978,1121.313965 
	C1817.065186,1121.313965 1842.893799,1121.313965 1870.014282,1121.313965 
	C1870.014282,1171.316895 1870.014282,1221.158325 1870.014282,1271.999634 
M1853.708008,1330.195068 
	C1855.971191,1321.562988 1859.724976,1313.011230 1860.194336,1304.282715 
	C1861.248169,1284.685669 1860.686523,1265.000854 1860.706909,1245.351807 
	C1860.707886,1244.489136 1859.963013,1243.625732 1859.459229,1242.531738 
	C1839.836060,1242.531738 1820.337036,1242.531738 1799.710693,1242.531738 
	C1799.710693,1253.899780 1799.849854,1264.797363 1799.647949,1275.688599 
	C1799.556030,1280.649902 1799.282593,1285.707397 1798.220459,1290.529297 
	C1796.351074,1299.015503 1790.941406,1303.425537 1783.841797,1303.183350 
	C1776.532349,1302.934082 1771.956299,1298.672485 1771.247192,1289.197998 
	C1770.354248,1277.267334 1770.627808,1265.248779 1770.429688,1253.267578 
	C1770.371582,1249.754395 1770.420898,1246.239380 1770.420898,1242.580933 
	C1749.419067,1242.580933 1729.916138,1242.580933 1709.264893,1242.580933 
	C1709.264893,1252.345459 1709.350464,1261.576782 1709.233276,1270.805664 
	C1709.161499,1276.455444 1708.970825,1282.119141 1708.449707,1287.740967 
	C1708.209961,1290.327148 1707.377441,1292.986938 1706.240479,1295.335938 
	C1703.492188,1301.014282 1698.332520,1303.739258 1692.415161,1303.083252 
	C1686.178833,1302.391968 1681.899536,1299.229736 1681.266113,1292.248169 
	C1680.216431,1280.679077 1680.386963,1268.996826 1680.122437,1257.360474 
	C1680.011841,1252.494141 1680.104004,1247.623291 1680.104004,1242.748657 
	C1658.932373,1242.748657 1639.156128,1242.748657 1618.649414,1242.748657 
	C1618.584229,1267.033813 1616.926025,1290.666992 1620.879761,1314.056641 
	C1622.187378,1321.791992 1625.256592,1329.439453 1628.698486,1336.557373 
	C1634.630981,1348.826172 1644.646973,1357.270996 1657.732788,1360.884277 
	C1687.219727,1369.025879 1714.911743,1364.053467 1733.611328,1336.461548 
	C1735.585083,1333.549316 1737.676636,1330.716919 1740.221802,1327.131104 
	C1742.935181,1331.395142 1744.803833,1334.491821 1746.827271,1337.483765 
	C1754.920898,1349.452148 1765.315308,1358.467651 1779.615845,1362.094116 
	C1804.866821,1368.496826 1836.457886,1361.948242 1853.708008,1330.195068 
z"/>
<path fill="#FBFBFB" opacity="1.000000" stroke="none" 
	d="
M1163.432129,1367.264404 
	C1137.862183,1367.264404 1112.292236,1367.264404 1086.302124,1367.264404 
	C1086.302124,1284.812012 1086.302124,1203.312988 1086.302124,1121.516113 
	C1087.860352,1121.221436 1089.124878,1120.764404 1090.385376,1120.775879 
	C1128.363037,1121.121216 1166.380737,1120.572021 1204.304688,1122.199097 
	C1233.833984,1123.465820 1261.113159,1132.945312 1283.840088,1152.946167 
	C1306.461304,1172.854004 1318.553467,1198.186890 1321.223999,1227.913330 
	C1324.042603,1259.290283 1318.961060,1289.141846 1300.573486,1315.506714 
	C1277.971680,1347.914429 1246.286987,1364.866333 1207.214600,1367.867920 
	C1194.967773,1368.808716 1182.579468,1367.908447 1169.369141,1366.759277 
	C1168.386108,1340.509644 1168.289673,1315.351685 1169.046631,1289.867554 
	C1179.853027,1289.062988 1189.865723,1289.115356 1199.747681,1288.004028 
	C1226.896851,1284.951050 1240.598389,1269.257080 1240.512329,1242.046509 
	C1240.506104,1240.053345 1240.405151,1238.057373 1240.267578,1236.068237 
	C1239.145752,1219.833008 1231.011719,1208.580933 1215.805298,1202.911377 
	C1199.585815,1196.864014 1182.733887,1197.598022 1165.502563,1198.546753 
	C1165.502563,1229.497681 1165.502563,1259.726440 1165.057617,1290.648193 
	C1164.538208,1312.735840 1164.509155,1334.130615 1164.347778,1355.524292 
	C1164.318237,1359.439697 1163.751099,1363.351196 1163.432129,1367.264404 
M1261.279907,1242.000366 
	C1257.696411,1242.000366 1254.112915,1242.000366 1250.531250,1242.000366 
	C1249.672119,1247.286133 1249.023071,1251.533203 1248.286987,1255.765015 
	C1245.090820,1274.135620 1234.700317,1286.931030 1217.126099,1292.677612 
	C1207.777832,1295.734253 1197.643433,1296.445557 1187.827271,1297.981201 
	C1184.354004,1298.524414 1180.771851,1298.372681 1177.462769,1298.527832 
	C1175.491821,1312.423706 1176.002075,1351.886475 1178.245605,1359.365601 
	C1219.214966,1362.030640 1255.861450,1352.942261 1284.951904,1321.316528 
	C1301.644897,1303.168823 1316.514282,1266.285400 1310.886841,1242.000244 
	C1295.105713,1242.000244 1279.157715,1242.000244 1261.279907,1242.000366 
M1117.045166,1358.208862 
	C1129.887939,1358.208862 1142.730591,1358.208862 1155.380493,1358.208862 
	C1157.275391,1339.875122 1156.575073,1249.697021 1154.641113,1242.623169 
	C1138.242676,1241.048706 1102.530029,1241.617676 1095.380981,1243.567261 
	C1093.471558,1257.508423 1094.113403,1350.839722 1096.339844,1358.208984 
	C1102.462280,1358.208984 1108.763184,1358.208984 1117.045166,1358.208862 
z"/>
<path fill="#FBFBFB" opacity="1.000000" stroke="none" 
	d="
M2571.664062,1133.719360 
	C2618.551270,1108.533447 2665.195801,1106.571045 2709.397217,1136.250977 
	C2755.001953,1166.873169 2774.438477,1211.423340 2765.634033,1265.894775 
	C2757.563232,1315.824463 2727.787598,1349.882446 2680.311035,1366.434692 
	C2608.476074,1391.479248 2529.955078,1348.298096 2513.091797,1274.765625 
	C2500.450928,1219.645386 2519.622314,1167.132568 2571.664062,1133.719360 
M2742.480713,1305.265137 
	C2753.761230,1285.924927 2759.351074,1265.264771 2758.159668,1242.515625 
	C2736.795898,1242.515625 2716.614746,1242.515625 2696.533691,1242.515625 
	C2689.090820,1282.275269 2671.705811,1301.396729 2641.215332,1303.122437 
	C2628.936768,1303.817383 2617.432617,1300.680542 2607.291016,1293.433105 
	C2589.859131,1280.976196 2581.671875,1263.567749 2581.359863,1242.754150 
	C2559.754883,1242.754150 2539.280518,1242.754150 2517.667480,1242.754150 
	C2518.793701,1252.156494 2519.193848,1260.821655 2520.937500,1269.207397 
	C2534.799561,1335.865479 2601.472168,1377.288330 2668.157715,1360.906860 
	C2700.258545,1353.021118 2724.020020,1333.852417 2742.480713,1305.265137 
M2615.564941,1200.138550 
	C2601.130615,1209.158691 2592.847168,1222.020630 2590.803711,1239.010254 
	C2586.769287,1272.549561 2617.851807,1301.146118 2649.858154,1292.869263 
	C2668.997803,1287.919556 2680.970947,1274.983765 2685.068848,1256.007935 
	C2689.458008,1235.681763 2684.290283,1217.506470 2667.424316,1204.249512 
	C2651.849609,1192.007080 2634.720459,1190.863647 2615.564941,1200.138550 
z"/>
<path fill="#FBFBFB" opacity="1.000000" stroke="none" 
	d="
M1560.491211,1161.480469 
	C1608.879028,1217.684082 1602.097900,1319.442383 1517.783203,1360.289673 
	C1436.056152,1399.883423 1349.306030,1347.772095 1334.473022,1268.999390 
	C1318.817749,1185.859741 1381.380859,1113.476562 1466.075073,1115.287109 
	C1504.507080,1116.108765 1535.275269,1132.219360 1560.491211,1161.480469 
M1474.156250,1363.826294 
	C1538.368286,1358.274536 1585.842773,1297.513794 1580.282227,1242.604004 
	C1559.845581,1242.604004 1539.371338,1242.604004 1518.995483,1242.604004 
	C1512.784546,1281.861450 1492.771362,1302.875732 1461.699097,1303.265381 
	C1430.896240,1303.651733 1410.629272,1282.714966 1403.298584,1242.733154 
	C1382.886841,1242.733154 1362.436768,1242.733154 1341.819702,1242.733154 
	C1341.662842,1245.427734 1341.389526,1247.412354 1341.455811,1249.385376 
	C1342.811401,1289.676270 1361.494751,1320.495605 1393.652100,1343.628418 
	C1417.145386,1360.528564 1443.847290,1365.853882 1474.156250,1363.826294 
M1425.490845,1277.418091 
	C1438.332031,1291.917114 1454.284302,1297.348755 1473.067139,1292.670166 
	C1498.954712,1286.222168 1514.215820,1259.631958 1507.709473,1231.772339 
	C1503.567261,1214.035400 1492.502441,1201.490723 1474.838379,1196.190186 
	C1457.163574,1190.886719 1441.497925,1195.257568 1428.072876,1208.117432 
	C1409.208008,1226.187866 1409.119263,1258.851562 1425.490845,1277.418091 
z"/>
<path fill="#F8F8F8" opacity="1.000000" stroke="none" 
	d="
M2281.017334,1367.671021 
	C2255.134033,1367.671021 2229.250977,1367.671021 2202.831055,1367.671021 
	C2202.831055,1284.989868 2202.831055,1203.558350 2202.831055,1121.936890 
	C2203.621826,1121.602539 2204.516602,1120.889893 2205.406006,1120.896362 
	C2240.350342,1121.148193 2275.304443,1121.097168 2310.231934,1122.031250 
	C2319.004883,1122.265991 2327.991211,1124.845459 2336.363037,1127.807007 
	C2359.478516,1135.984009 2371.340088,1153.289429 2373.740723,1177.284180 
	C2375.730713,1197.175659 2370.502197,1214.850586 2356.576172,1229.601685 
	C2355.243408,1231.013306 2354.009766,1232.518433 2352.412842,1234.342896 
	C2354.100342,1235.595581 2355.292725,1236.576904 2356.575928,1237.419067 
	C2381.635010,1253.862915 2388.642822,1278.074951 2384.938965,1306.086670 
	C2381.073486,1335.321777 2364.190430,1354.755127 2336.175293,1363.286743 
	C2325.863281,1366.427368 2314.512451,1366.301514 2303.599854,1367.263184 
	C2297.982422,1367.758179 2292.287354,1367.369629 2285.445801,1366.665039 
	C2284.264648,1343.457275 2284.264648,1320.964722 2284.264648,1297.609131 
	C2288.393066,1297.609131 2291.974121,1297.718140 2295.545898,1297.581177 
	C2299.849121,1297.416016 2304.154541,1297.146973 2308.440186,1296.728638 
	C2312.554443,1296.327026 2315.408447,1294.300049 2315.310059,1289.791016 
	C2315.223633,1285.820435 2312.567383,1283.898193 2308.960205,1283.293945 
	C2306.030518,1282.802979 2303.053223,1282.493164 2300.085449,1282.355713 
	C2294.780273,1282.109741 2289.466309,1282.053955 2284.147949,1280.986572 
	C2284.271729,1256.810425 2284.403809,1233.566528 2285.357178,1210.300537 
	C2289.767090,1209.973755 2293.446777,1210.063232 2296.921387,1209.263550 
	C2301.123535,1208.296143 2303.950684,1205.468262 2303.548096,1200.796387 
	C2303.184570,1196.573486 2300.255127,1194.368530 2296.279541,1194.108521 
	C2291.558350,1193.799438 2286.801758,1194.035767 2282.252930,1194.035767 
	C2282.252930,1200.116577 2282.252930,1205.027954 2282.049316,1210.861084 
	C2281.996582,1235.212769 2282.147217,1258.642700 2282.128662,1282.991943 
	C2282.000244,1308.219971 2282.085693,1332.528809 2282.033936,1356.837402 
	C2282.026367,1360.449341 2281.372314,1364.059814 2281.017334,1367.671021 
M2333.303955,1354.993042 
	C2338.454346,1352.714600 2343.938232,1350.981323 2348.698975,1348.066528 
	C2373.942871,1332.610718 2381.504639,1303.722656 2374.054932,1274.347656 
	C2370.989502,1262.259766 2363.616943,1253.018555 2353.353516,1245.947021 
	C2349.350830,1243.189209 2345.230225,1241.875977 2340.330566,1241.952515 
	C2327.024902,1242.160645 2313.713623,1241.985107 2300.405029,1242.065674 
	C2298.182129,1242.079102 2295.962646,1242.614136 2293.818848,1242.897827 
	C2293.818848,1253.272827 2293.818848,1263.055664 2293.818848,1273.257324 
	C2299.491699,1273.574829 2304.470947,1273.514893 2309.345459,1274.199097 
	C2318.521240,1275.486938 2323.720215,1280.938110 2324.093018,1289.000610 
	C2324.526611,1298.381592 2319.471191,1304.345337 2309.382812,1305.743286 
	C2304.231445,1306.457153 2298.984863,1306.484497 2293.650391,1306.830444 
	C2293.650391,1324.192017 2293.650391,1340.669800 2293.650391,1357.825195 
	C2306.842529,1358.625366 2319.339844,1358.209229 2333.303955,1354.993042 
M2272.730713,1350.799316 
	C2272.559814,1315.226685 2272.389893,1279.653931 2272.198242,1244.081421 
	C2272.196777,1243.806396 2271.938477,1243.498779 2271.731201,1243.267944 
	C2271.512939,1243.024780 2271.211914,1242.855835 2270.912109,1242.627686 
	C2251.470215,1242.627686 2231.998779,1242.627686 2212.245850,1242.627686 
	C2212.245850,1281.268188 2212.245850,1319.303955 2212.245850,1358.183228 
	C2218.800049,1358.183228 2224.723877,1358.184082 2230.647949,1358.182983 
	C2242.622803,1358.180542 2254.598389,1358.097412 2266.572021,1358.219482 
	C2270.499268,1358.259521 2273.152344,1357.390869 2272.730713,1350.799316 
z"/>
<path fill="#F8F8F8" opacity="1.000000" stroke="none" 
	d="
M1942.796387,1126.837891 
	C1967.978760,1113.672485 1994.025269,1112.163330 2020.224121,1118.615479 
	C2051.099854,1126.219482 2068.712158,1147.720459 2075.662354,1178.012329 
	C2078.027588,1188.320679 2079.244629,1199.107788 2079.323975,1209.688599 
	C2079.701172,1260.009644 2079.510010,1310.334961 2079.494385,1360.658813 
	C2079.493652,1362.569458 2079.218506,1364.479980 2079.035400,1366.858643 
	C2052.633789,1366.858643 2026.814087,1366.858643 1999.938965,1366.858643 
	C1999.938965,1362.883667 1999.939087,1359.323242 1999.939087,1355.762817 
	C1999.938477,1308.771729 1999.980591,1261.780518 1999.869751,1214.789673 
	C1999.858887,1210.190918 1999.290527,1205.508423 1998.287720,1201.019653 
	C1997.196167,1196.132935 1993.404175,1194.101318 1988.535889,1194.213257 
	C1984.010742,1194.317383 1980.748535,1196.563843 1979.836060,1200.988647 
	C1978.905029,1205.504395 1978.252808,1210.168213 1978.241699,1214.769043 
	C1978.129150,1261.759888 1978.171997,1308.751221 1978.171387,1355.742310 
	C1978.171387,1359.309082 1978.171387,1362.875854 1978.171387,1366.834961 
	C1951.346069,1366.834961 1925.539551,1366.834961 1899.164795,1366.834961 
	C1898.988159,1363.412476 1898.708130,1360.496826 1898.706665,1357.580811 
	C1898.681763,1308.923340 1898.489136,1260.264404 1898.853760,1211.609619 
	C1898.932983,1201.032471 1899.945557,1190.205933 1902.429810,1179.955200 
	C1908.018677,1156.893921 1921.505249,1139.210815 1942.796387,1126.837891 
M1969.135498,1354.911377 
	C1969.135498,1317.683228 1969.135498,1280.455200 1969.135498,1242.628418 
	C1948.459595,1242.628418 1928.675049,1242.628418 1908.497314,1242.628418 
	C1908.497314,1281.218872 1908.497314,1319.289917 1908.497314,1357.886841 
	C1928.374023,1357.886841 1947.619141,1357.895874 1966.864014,1357.842773 
	C1967.431274,1357.841187 1967.996582,1357.185425 1969.135498,1354.911377 
M2070.176025,1354.577759 
	C2070.176025,1317.396362 2070.176025,1280.214966 2070.176025,1242.694702 
	C2049.368896,1242.694702 2029.601685,1242.694702 2009.939209,1242.694702 
	C2007.925293,1256.593628 2008.603516,1350.519409 2010.823364,1357.997681 
	C2029.585571,1357.997681 2048.512207,1358.016357 2067.438477,1357.933228 
	C2068.248535,1357.929688 2069.054443,1356.985352 2070.176025,1354.577759 
z"/>
<path fill="#FBFBFB" opacity="1.000000" stroke="none" 
	d="
M2779.921387,1292.626587 
	C2780.023682,1289.839600 2780.125488,1287.975952 2780.291016,1284.944092 
	C2784.901123,1287.486694 2788.502686,1289.668091 2792.270996,1291.507324 
	C2798.531738,1294.563110 2804.970215,1295.406982 2811.452148,1292.077759 
	C2818.323242,1288.548950 2820.924561,1282.693604 2817.971924,1275.582642 
	C2815.303711,1269.156982 2811.874023,1263.038208 2808.629883,1256.862915 
	C2799.198975,1238.911133 2793.773438,1220.076782 2793.773438,1199.550293 
	C2793.773438,1156.406006 2832.367920,1113.767212 2880.063477,1115.261353 
	C2890.768555,1115.596680 2901.242676,1116.894409 2911.743896,1121.030762 
	C2911.743896,1146.115234 2911.743896,1171.321045 2911.743896,1197.291382 
	C2907.770264,1196.361938 2904.074707,1195.349731 2900.321045,1194.646606 
	C2888.202637,1192.376953 2878.977783,1201.363647 2881.815918,1213.401855 
	C2883.155762,1219.086060 2886.102539,1224.537598 2889.064209,1229.665649 
	C2897.610107,1244.464355 2904.588623,1259.670776 2906.749512,1276.936279 
	C2912.411133,1322.167236 2878.787598,1365.903687 2833.547363,1372.128418 
	C2814.840820,1374.702393 2797.149902,1372.543091 2779.921143,1363.447021 
	C2779.921143,1340.097290 2779.921143,1316.823608 2779.921387,1292.626587 
M2881.777832,1242.019409 
	C2858.871094,1242.019409 2835.964355,1242.019409 2811.383057,1242.019409 
	C2813.842529,1246.989014 2815.717773,1250.740845 2817.559814,1254.508789 
	C2820.625000,1260.778198 2824.007568,1266.919678 2826.639893,1273.366821 
	C2830.180420,1282.039307 2827.864990,1289.768555 2821.171387,1296.053833 
	C2814.970215,1301.876831 2807.369141,1303.780151 2799.020996,1302.812988 
	C2796.104492,1302.475342 2793.216064,1301.899414 2788.842529,1301.195068 
	C2788.842529,1305.171875 2788.842529,1308.397583 2788.842529,1311.623291 
	C2788.842529,1323.610352 2788.827393,1335.597290 2788.846680,1347.584351 
	C2788.864990,1358.777710 2789.041504,1358.989014 2799.657959,1361.839355 
	C2830.594238,1370.145020 2864.368408,1357.968384 2883.848633,1331.795166 
	C2902.270264,1307.044312 2902.837402,1273.508789 2887.265625,1244.998901 
	C2886.572510,1243.729492 2884.788086,1243.055908 2881.777832,1242.019409 
z"/>
<path fill="#F8F8F8" opacity="1.000000" stroke="none" 
	d="
M2485.177490,1210.000488 
	C2485.177490,1262.598511 2485.177490,1314.196533 2485.177490,1365.620972 
	C2477.348145,1367.866821 2432.224609,1368.544189 2406.507324,1366.906128 
	C2406.507324,1285.253784 2406.507324,1203.549561 2406.507324,1121.276855 
	C2432.243896,1121.276855 2458.031494,1121.276855 2485.177490,1121.276855 
	C2485.177490,1150.629150 2485.177490,1179.814819 2485.177490,1210.000488 
M2414.612793,1281.000244 
	C2414.613037,1293.659424 2414.522705,1306.319580 2414.638428,1318.977661 
	C2414.755371,1331.791748 2414.129883,1344.642822 2415.005859,1357.234619 
	C2429.654297,1359.029663 2468.467285,1358.546631 2475.506836,1356.642090 
	C2477.470459,1335.004639 2476.571777,1249.318604 2474.373047,1242.622070 
	C2454.741211,1242.622070 2435.178467,1242.622070 2414.611816,1242.622070 
	C2414.611816,1255.132080 2414.611816,1267.066284 2414.612793,1281.000244 
z"/>
<path fill="#040403" opacity="1.000000" stroke="none" 
	d="
M2281.989014,1367.710693 
	C2281.372314,1364.059814 2282.026367,1360.449341 2282.033936,1356.837402 
	C2282.085693,1332.528809 2282.000244,1308.219971 2282.599609,1283.029541 
	C2283.239746,1282.148071 2284.156006,1281.918579 2284.156006,1281.918579 
	C2289.466309,1282.053955 2294.780273,1282.109741 2300.085449,1282.355713 
	C2303.053223,1282.493164 2306.030518,1282.802979 2308.960205,1283.293945 
	C2312.567383,1283.898193 2315.223633,1285.820435 2315.310059,1289.791016 
	C2315.408447,1294.300049 2312.554443,1296.327026 2308.440186,1296.728638 
	C2304.154541,1297.146973 2299.849121,1297.416016 2295.545898,1297.581177 
	C2291.974121,1297.718140 2288.393066,1297.609131 2284.264648,1297.609131 
	C2284.264648,1320.964722 2284.264648,1343.457275 2284.584473,1366.820190 
	C2284.256592,1367.710571 2283.608643,1367.730591 2281.989014,1367.710693 
z"/>
<path fill="#707070" opacity="1.000000" stroke="none" 
	d="
M1164.270020,1367.399780 
	C1163.751099,1363.351196 1164.318237,1359.439697 1164.347778,1355.524292 
	C1164.509155,1334.130615 1164.538208,1312.735840 1165.722168,1290.798828 
	C1167.285645,1290.235474 1167.739502,1290.214478 1168.193359,1290.193604 
	C1168.289673,1315.351685 1168.386108,1340.509644 1168.479004,1366.571533 
	C1167.352905,1367.495239 1166.230347,1367.515137 1164.270020,1367.399780 
z"/>
<path fill="#040403" opacity="1.000000" stroke="none" 
	d="
M1054.838135,677.941528 
	C1054.838013,662.000305 1054.838013,647.047729 1054.838013,631.061096 
	C1067.983154,630.002014 1080.447998,630.907715 1094.015015,630.494934 
	C1094.015015,654.971375 1094.015015,678.736328 1094.015015,703.046753 
	C1113.614380,703.046753 1132.106323,703.046753 1151.729004,703.046753 
	C1151.729004,679.123413 1151.729004,655.341248 1151.729004,631.080078 
	C1165.338989,631.080078 1177.824585,631.080078 1191.466431,631.080078 
	C1191.466431,655.242615 1191.466431,679.026917 1191.466431,703.615051 
	C1198.858643,703.615051 1205.124268,703.614563 1211.389893,703.615112 
	C1225.055908,703.616272 1238.744507,704.125061 1252.383057,703.513733 
	C1280.627075,702.247803 1313.721069,736.175903 1312.422852,763.598511 
	C1311.635620,780.226990 1312.280762,796.923218 1312.282227,813.589050 
	C1312.282471,816.847107 1312.282349,820.105164 1312.282349,824.212646 
	C1336.615234,824.212646 1360.134033,824.212646 1383.389160,824.212646 
	C1385.617676,831.992859 1385.948608,852.445557 1384.137085,863.927185 
	C1360.705078,863.927185 1337.140381,863.927185 1312.935059,863.927185 
	C1312.935059,883.154053 1312.935059,901.657227 1312.935059,921.304565 
	C1336.550659,921.304565 1360.347168,921.304565 1384.678589,921.304565 
	C1384.678589,934.870056 1384.678589,947.303040 1384.678589,960.956055 
	C1360.514526,960.956055 1336.698853,960.956055 1312.104370,960.956055 
	C1312.104370,975.114807 1311.718262,988.085266 1312.222046,1001.021057 
	C1312.652466,1012.072205 1317.835449,1017.419128 1329.061646,1018.213867 
	C1339.667603,1018.964661 1350.356934,1018.557556 1361.009766,1018.614929 
	C1368.620850,1018.655945 1376.232056,1018.622864 1384.483032,1018.622864 
	C1384.483032,1031.626709 1384.483032,1044.126587 1384.483032,1057.314087 
	C1381.762329,1057.504517 1379.199463,1057.842896 1376.637085,1057.838135 
	C1356.638306,1057.800415 1336.637085,1057.500610 1316.641968,1057.733276 
	C1310.645996,1057.802979 1305.782837,1056.199097 1300.902344,1052.848389 
	C1281.078735,1039.238525 1260.490723,1026.910034 1237.222778,1020.073425 
	C1153.659058,995.520630 1080.467407,1015.337463 1017.532898,1073.793823 
	C978.826172,1109.746338 956.199402,1154.998657 950.462952,1207.620605 
	C943.695007,1269.704712 960.855469,1325.232300 1001.722473,1372.494995 
	C1011.392517,1383.678589 1016.203308,1394.322266 1014.858765,1408.893677 
	C1013.764465,1420.752441 1014.636353,1432.792603 1014.636353,1445.322998 
	C995.831360,1445.322998 977.655884,1445.322998 958.779297,1445.322998 
	C958.551819,1442.699341 958.143311,1440.170166 958.144348,1437.641235 
	C958.150391,1422.976807 958.584961,1408.304199 958.231628,1393.650024 
	C957.858704,1378.180786 952.062988,1372.533569 936.791443,1372.348877 
	C924.888123,1372.204834 912.977417,1372.674927 900.344116,1372.884155 
	C900.344116,1397.594849 900.344116,1421.134888 900.344116,1445.175049 
	C887.083679,1445.175049 874.603333,1445.175049 861.230347,1445.175049 
	C861.230347,1421.222900 861.230347,1397.694702 861.230347,1373.501465 
	C841.887512,1373.501465 823.421631,1373.501465 804.131042,1373.501465 
	C804.131042,1397.105347 804.131042,1420.620483 804.131042,1445.587891 
	C790.608337,1445.702026 777.880249,1445.905396 764.351013,1445.350830 
	C764.351013,1421.215332 764.351013,1397.665894 764.351013,1373.360718 
	C760.724976,1373.152100 757.828918,1372.849487 754.932007,1372.841187 
	C738.266357,1372.793091 721.558105,1372.054443 704.944031,1372.980469 
	C675.624268,1374.614380 641.305847,1341.187988 642.852234,1310.585815 
	C643.658630,1294.627563 642.991150,1278.594604 642.989563,1262.595459 
	C642.989258,1259.314575 642.989441,1256.033691 642.989441,1251.976562 
	C618.606018,1251.976562 595.076538,1251.976562 570.901978,1251.976562 
	C570.901978,1238.703491 570.901978,1226.202515 570.901978,1212.555176 
	C594.436279,1212.555176 618.228516,1212.555176 642.493042,1212.555176 
	C642.493042,1192.904907 642.493042,1174.390991 642.493042,1155.005615 
	C618.531860,1155.005615 594.998901,1155.005615 570.861694,1155.005615 
	C570.861694,1141.670898 570.861694,1129.192139 570.861694,1115.878052 
	C594.499146,1115.878052 618.028503,1115.878052 642.268372,1115.878052 
	C642.268372,1096.264771 642.268372,1077.467651 642.268372,1057.888916 
	C618.430969,1057.888916 594.887451,1057.888916 570.801147,1057.888916 
	C570.801147,1044.626343 570.801147,1032.129883 570.801147,1018.469666 
	C594.633911,1018.469666 618.411865,1018.469666 642.574219,1018.469666 
	C642.574219,999.065979 642.574219,980.812744 642.574219,961.313904 
	C618.806458,961.313904 595.025635,961.313904 570.758667,961.313904 
	C570.758667,947.589111 570.758667,935.103882 570.758667,921.847046 
	C594.682251,921.847046 618.226013,921.847046 642.373169,921.847046 
	C642.373169,902.261169 642.373169,883.443115 642.373169,863.861816 
	C618.311768,863.861816 594.760132,863.861816 570.734497,863.861816 
	C570.734497,850.609436 570.734497,838.114990 570.734497,824.749573 
	C594.530762,824.749573 618.055603,824.749573 642.212585,824.749573 
	C642.520935,821.437134 642.948792,818.921387 642.958069,816.404053 
	C643.019348,799.738464 643.756592,783.029785 642.828186,766.415894 
	C641.029602,734.229736 677.362061,700.667114 706.282043,703.359375 
	C721.813232,704.805298 737.589844,703.615540 753.255676,703.615112 
	C756.513855,703.614990 759.772034,703.615051 763.778442,703.615051 
	C763.778442,679.201599 763.778442,655.656860 763.778442,630.798462 
	C777.257690,630.385864 789.995483,630.604980 803.487671,630.627808 
	C803.487671,655.138855 803.487671,678.694519 803.487671,702.927490 
	C822.713074,702.927490 841.215637,702.927490 860.883728,702.927490 
	C860.883728,679.290344 860.883728,655.445374 860.883728,631.101196 
	C874.532288,631.101196 887.024109,631.101196 900.289795,631.101196 
	C900.289795,655.130737 900.289795,678.684082 900.289795,702.919617 
	C919.523071,702.919617 938.002563,702.919617 957.977478,702.919617 
	C958.070129,679.319580 957.964661,655.532471 958.038696,631.173218 
	C971.222473,631.173218 983.722351,631.173218 997.339722,631.173218 
	C997.339722,655.004150 997.339722,678.794495 997.339722,703.087830 
	C1016.912537,703.087830 1035.378784,703.087830 1054.838135,703.087830 
	C1054.838135,694.796692 1054.838135,686.863464 1054.838135,677.941528 
M718.660339,751.971497 
	C717.805725,752.134460 716.951172,752.297485 714.647522,752.275635 
	C713.711609,752.511108 712.775635,752.746582 710.982239,752.747314 
	C710.329895,752.842529 709.884766,753.197571 708.210999,753.789490 
	C697.737183,756.593994 693.301086,764.284668 692.057251,774.261047 
	C691.524292,778.535583 691.655090,782.905151 691.652710,787.231628 
	C691.611511,863.498657 691.590393,939.765747 691.595886,1016.032776 
	C691.596130,1019.348083 691.892639,1022.663330 691.674622,1027.823486 
	C691.647034,1050.997070 691.557800,1074.170654 691.613892,1097.344116 
	C691.649902,1112.226685 691.899963,1127.108765 691.668884,1143.832764 
	C691.643677,1193.466675 691.610229,1243.100464 691.611450,1292.734375 
	C691.611511,1296.061035 691.633545,1299.418091 692.054688,1302.708740 
	C693.593628,1314.731689 700.657471,1321.981201 712.599304,1323.800659 
	C715.545837,1324.249634 718.576416,1324.276611 721.568481,1324.277954 
	C783.194763,1324.304688 844.821045,1324.307983 906.447327,1324.271240 
	C908.932312,1324.269653 911.417114,1323.829346 913.824951,1323.600708 
	C909.538940,1303.770630 905.407593,1284.656128 901.487061,1263.729004 
	C901.097168,1255.835205 900.114197,1247.917480 900.432617,1240.052368 
	C901.270569,1219.351685 902.674438,1198.674072 904.532349,1176.589600 
	C908.339233,1163.619873 911.564270,1150.441162 916.125671,1137.742432 
	C920.239441,1126.289551 925.816223,1115.362061 931.751343,1103.352783 
	C944.747681,1079.104614 961.421692,1057.544800 981.223633,1037.033691 
	C1006.524597,1014.097961 1033.279175,993.357178 1065.647827,981.079834 
	C1065.874268,980.993896 1065.951172,980.513489 1067.698608,980.170166 
	C1080.119507,976.536865 1092.488647,972.713257 1104.971680,969.308105 
	C1135.138306,961.079224 1165.735840,957.030701 1196.891724,962.075867 
	C1211.656982,964.466858 1226.215088,968.117004 1240.898560,971.038574 
	C1248.238892,972.499084 1255.649780,973.604553 1263.621948,974.972290 
	C1263.816528,971.258606 1264.040161,968.975647 1264.040161,966.692688 
	C1264.040894,905.367065 1264.022339,844.041443 1263.987061,782.715820 
	C1263.985596,780.052917 1263.988159,777.365356 1263.655640,774.731384 
	C1261.959473,761.297607 1254.390381,753.746277 1240.954468,752.262695 
	C1236.995850,751.825500 1232.967163,751.942749 1228.970581,751.941772 
	C1064.657837,751.900818 900.345154,751.872681 736.032410,751.868286 
	C732.714844,751.868225 729.397217,752.169434 724.556335,752.009338 
	C723.013733,752.123047 721.471069,752.236755 718.660339,751.971497 
z"/>
<path fill="#686868" opacity="1.000000" stroke="none" 
	d="
M1853.362061,1330.866943 
	C1836.457886,1361.948242 1804.866821,1368.496826 1779.615845,1362.094116 
	C1765.315308,1358.467651 1754.920898,1349.452148 1746.827271,1337.483765 
	C1744.803833,1334.491821 1742.935181,1331.395142 1740.221802,1327.131104 
	C1737.676636,1330.716919 1735.585083,1333.549316 1733.611328,1336.461548 
	C1714.911743,1364.053467 1687.219727,1369.025879 1657.732788,1360.884277 
	C1644.646973,1357.270996 1634.630981,1348.826172 1628.698486,1336.557373 
	C1625.256592,1329.439453 1622.187378,1321.791992 1620.879761,1314.056641 
	C1616.926025,1290.666992 1618.584229,1267.033813 1618.649414,1242.748657 
	C1639.156128,1242.748657 1658.932373,1242.748657 1680.104004,1242.748657 
	C1680.104004,1247.623291 1680.011841,1252.494141 1680.122437,1257.360474 
	C1680.386963,1268.996826 1680.216431,1280.679077 1681.266113,1292.248169 
	C1681.899536,1299.229736 1686.178833,1302.391968 1692.415161,1303.083252 
	C1698.332520,1303.739258 1703.492188,1301.014282 1706.240479,1295.335938 
	C1707.377441,1292.986938 1708.209961,1290.327148 1708.449707,1287.740967 
	C1708.970825,1282.119141 1709.161499,1276.455444 1709.233276,1270.805664 
	C1709.350464,1261.576782 1709.264893,1252.345459 1709.264893,1242.580933 
	C1729.916138,1242.580933 1749.419067,1242.580933 1770.420898,1242.580933 
	C1770.420898,1246.239380 1770.371582,1249.754395 1770.429688,1253.267578 
	C1770.627808,1265.248779 1770.354248,1277.267334 1771.247192,1289.197998 
	C1771.956299,1298.672485 1776.532349,1302.934082 1783.841797,1303.183350 
	C1790.941406,1303.425537 1796.351074,1299.015503 1798.220459,1290.529297 
	C1799.282593,1285.707397 1799.556030,1280.649902 1799.647949,1275.688599 
	C1799.849854,1264.797363 1799.710693,1253.899780 1799.710693,1242.531738 
	C1820.337036,1242.531738 1839.836060,1242.531738 1859.459229,1242.531738 
	C1859.963013,1243.625732 1860.707886,1244.489136 1860.706909,1245.351807 
	C1860.686523,1265.000854 1861.248169,1284.685669 1860.194336,1304.282715 
	C1859.724976,1313.011230 1855.971191,1321.562988 1853.362061,1330.866943 
z"/>
<path fill="#686868" opacity="1.000000" stroke="none" 
	d="
M1262.244873,1242.000244 
	C1279.157715,1242.000244 1295.105713,1242.000244 1310.886841,1242.000244 
	C1316.514282,1266.285400 1301.644897,1303.168823 1284.951904,1321.316528 
	C1255.861450,1352.942261 1219.214966,1362.030640 1178.245605,1359.365601 
	C1176.002075,1351.886475 1175.491821,1312.423706 1177.462769,1298.527832 
	C1180.771851,1298.372681 1184.354004,1298.524414 1187.827271,1297.981201 
	C1197.643433,1296.445557 1207.777832,1295.734253 1217.126099,1292.677612 
	C1234.700317,1286.931030 1245.090820,1274.135620 1248.286987,1255.765015 
	C1249.023071,1251.533203 1249.672119,1247.286133 1250.531250,1242.000366 
	C1254.112915,1242.000366 1257.696411,1242.000366 1262.244873,1242.000244 
z"/>
<path fill="#686868" opacity="1.000000" stroke="none" 
	d="
M1116.054688,1358.208984 
	C1108.763184,1358.208984 1102.462280,1358.208984 1096.339844,1358.208984 
	C1094.113403,1350.839722 1093.471558,1257.508423 1095.380981,1243.567261 
	C1102.530029,1241.617676 1138.242676,1241.048706 1154.641113,1242.623169 
	C1156.575073,1249.697021 1157.275391,1339.875122 1155.380493,1358.208862 
	C1142.730591,1358.208862 1129.887939,1358.208862 1116.054688,1358.208984 
z"/>
<path fill="#040403" opacity="1.000000" stroke="none" 
	d="
M1169.046631,1289.867554 
	C1167.739502,1290.214478 1167.285645,1290.235474 1166.167236,1290.105713 
	C1165.502563,1259.726440 1165.502563,1229.497681 1165.502563,1198.546753 
	C1182.733887,1197.598022 1199.585815,1196.864014 1215.805298,1202.911377 
	C1231.011719,1208.580933 1239.145752,1219.833008 1240.267578,1236.068237 
	C1240.405151,1238.057373 1240.506104,1240.053345 1240.512329,1242.046509 
	C1240.598389,1269.257080 1226.896851,1284.951050 1199.747681,1288.004028 
	C1189.865723,1289.115356 1179.853027,1289.062988 1169.046631,1289.867554 
z"/>
<path fill="#686868" opacity="1.000000" stroke="none" 
	d="
M2742.129883,1305.906738 
	C2724.020020,1333.852417 2700.258545,1353.021118 2668.157715,1360.906860 
	C2601.472168,1377.288330 2534.799561,1335.865479 2520.937500,1269.207397 
	C2519.193848,1260.821655 2518.793701,1252.156494 2517.667480,1242.754150 
	C2539.280518,1242.754150 2559.754883,1242.754150 2581.359863,1242.754150 
	C2581.671875,1263.567749 2589.859131,1280.976196 2607.291016,1293.433105 
	C2617.432617,1300.680542 2628.936768,1303.817383 2641.215332,1303.122437 
	C2671.705811,1301.396729 2689.090820,1282.275269 2696.533691,1242.515625 
	C2716.614746,1242.515625 2736.795898,1242.515625 2758.159668,1242.515625 
	C2759.351074,1265.264771 2753.761230,1285.924927 2742.129883,1305.906738 
z"/>
<path fill="#040403" opacity="1.000000" stroke="none" 
	d="
M2616.243652,1199.813477 
	C2634.720459,1190.863647 2651.849609,1192.007080 2667.424316,1204.249512 
	C2684.290283,1217.506470 2689.458008,1235.681763 2685.068848,1256.007935 
	C2680.970947,1274.983765 2668.997803,1287.919556 2649.858154,1292.869263 
	C2617.851807,1301.146118 2586.769287,1272.549561 2590.803711,1239.010254 
	C2592.847168,1222.020630 2601.130615,1209.158691 2616.243652,1199.813477 
z"/>
<path fill="#686868" opacity="1.000000" stroke="none" 
	d="
M1473.233154,1363.884888 
	C1443.847290,1365.853882 1417.145386,1360.528564 1393.652100,1343.628418 
	C1361.494751,1320.495605 1342.811401,1289.676270 1341.455811,1249.385376 
	C1341.389526,1247.412354 1341.662842,1245.427734 1341.819702,1242.733154 
	C1362.436768,1242.733154 1382.886841,1242.733154 1403.298584,1242.733154 
	C1410.629272,1282.714966 1430.896240,1303.651733 1461.699097,1303.265381 
	C1492.771362,1302.875732 1512.784546,1281.861450 1518.995483,1242.604004 
	C1539.371338,1242.604004 1559.845581,1242.604004 1580.282227,1242.604004 
	C1585.842773,1297.513794 1538.368286,1358.274536 1473.233154,1363.884888 
z"/>
<path fill="#040403" opacity="1.000000" stroke="none" 
	d="
M1425.019287,1276.874756 
	C1409.119263,1258.851562 1409.208008,1226.187866 1428.072876,1208.117432 
	C1441.497925,1195.257568 1457.163574,1190.886719 1474.838379,1196.190186 
	C1492.502441,1201.490723 1503.567261,1214.035400 1507.709473,1231.772339 
	C1514.215820,1259.631958 1498.954712,1286.222168 1473.067139,1292.670166 
	C1454.284302,1297.348755 1438.332031,1291.917114 1425.019287,1276.874756 
z"/>
<path fill="#686868" opacity="1.000000" stroke="none" 
	d="
M2332.520508,1355.245117 
	C2319.339844,1358.209229 2306.842529,1358.625366 2293.650391,1357.825195 
	C2293.650391,1340.669800 2293.650391,1324.192017 2293.650391,1306.830444 
	C2298.984863,1306.484497 2304.231445,1306.457153 2309.382812,1305.743286 
	C2319.471191,1304.345337 2324.526611,1298.381592 2324.093018,1289.000610 
	C2323.720215,1280.938110 2318.521240,1275.486938 2309.345459,1274.199097 
	C2304.470947,1273.514893 2299.491699,1273.574829 2293.818848,1273.257324 
	C2293.818848,1263.055664 2293.818848,1253.272827 2293.818848,1242.897827 
	C2295.962646,1242.614136 2298.182129,1242.079102 2300.405029,1242.065674 
	C2313.713623,1241.985107 2327.024902,1242.160645 2340.330566,1241.952515 
	C2345.230225,1241.875977 2349.350830,1243.189209 2353.353516,1245.947021 
	C2363.616943,1253.018555 2370.989502,1262.259766 2374.054932,1274.347656 
	C2381.504639,1303.722656 2373.942871,1332.610718 2348.698975,1348.066528 
	C2343.938232,1350.981323 2338.454346,1352.714600 2332.520508,1355.245117 
z"/>
<path fill="#686868" opacity="1.000000" stroke="none" 
	d="
M2272.721436,1351.782227 
	C2273.152344,1357.390869 2270.499268,1358.259521 2266.572021,1358.219482 
	C2254.598389,1358.097412 2242.622803,1358.180542 2230.647949,1358.182983 
	C2224.723877,1358.184082 2218.800049,1358.183228 2212.245850,1358.183228 
	C2212.245850,1319.303955 2212.245850,1281.268188 2212.245850,1242.627686 
	C2231.998779,1242.627686 2251.470215,1242.627686 2270.912109,1242.627686 
	C2271.211914,1242.855835 2271.512939,1243.024780 2271.731201,1243.267944 
	C2271.938477,1243.498779 2272.196777,1243.806396 2272.198242,1244.081421 
	C2272.389893,1279.653931 2272.559814,1315.226685 2272.721436,1351.782227 
z"/>
<path fill="#040403" opacity="1.000000" stroke="none" 
	d="
M2282.252930,1209.939209 
	C2282.252930,1205.027954 2282.252930,1200.116577 2282.252930,1194.035767 
	C2286.801758,1194.035767 2291.558350,1193.799438 2296.279541,1194.108521 
	C2300.255127,1194.368530 2303.184570,1196.573486 2303.548096,1200.796387 
	C2303.950684,1205.468262 2301.123535,1208.296143 2296.921387,1209.263550 
	C2293.446777,1210.063232 2289.767090,1209.973755 2284.798828,1210.131104 
	C2283.030273,1209.968994 2282.641602,1209.954102 2282.252930,1209.939209 
z"/>
<path fill="#303030" opacity="1.000000" stroke="none" 
	d="
M2282.049316,1210.861084 
	C2282.641602,1209.954102 2283.030273,1209.968994 2283.977539,1210.153198 
	C2284.403809,1233.566528 2284.271729,1256.810425 2284.147949,1280.986572 
	C2284.156006,1281.918579 2283.239746,1282.148071 2282.768799,1282.110352 
	C2282.147217,1258.642700 2281.996582,1235.212769 2282.049316,1210.861084 
z"/>
<path fill="#686868" opacity="1.000000" stroke="none" 
	d="
M1968.849121,1355.873047 
	C1967.996582,1357.185425 1967.431274,1357.841187 1966.864014,1357.842773 
	C1947.619141,1357.895874 1928.374023,1357.886841 1908.497314,1357.886841 
	C1908.497314,1319.289917 1908.497314,1281.218872 1908.497314,1242.628418 
	C1928.675049,1242.628418 1948.459595,1242.628418 1969.135498,1242.628418 
	C1969.135498,1280.455200 1969.135498,1317.683228 1968.849121,1355.873047 
z"/>
<path fill="#686868" opacity="1.000000" stroke="none" 
	d="
M2070.019287,1355.528564 
	C2069.054443,1356.985352 2068.248535,1357.929688 2067.438477,1357.933228 
	C2048.512207,1358.016357 2029.585571,1357.997681 2010.823364,1357.997681 
	C2008.603516,1350.519409 2007.925293,1256.593628 2009.939209,1242.694702 
	C2029.601685,1242.694702 2049.368896,1242.694702 2070.176025,1242.694702 
	C2070.176025,1280.214966 2070.176025,1317.396362 2070.019287,1355.528564 
z"/>
<path fill="#686868" opacity="1.000000" stroke="none" 
	d="
M2882.645020,1242.062012 
	C2884.788086,1243.055908 2886.572510,1243.729492 2887.265625,1244.998901 
	C2902.837402,1273.508789 2902.270264,1307.044312 2883.848633,1331.795166 
	C2864.368408,1357.968384 2830.594238,1370.145020 2799.657959,1361.839355 
	C2789.041504,1358.989014 2788.864990,1358.777710 2788.846680,1347.584351 
	C2788.827393,1335.597290 2788.842529,1323.610352 2788.842529,1311.623291 
	C2788.842529,1308.397583 2788.842529,1305.171875 2788.842529,1301.195068 
	C2793.216064,1301.899414 2796.104492,1302.475342 2799.020996,1302.812988 
	C2807.369141,1303.780151 2814.970215,1301.876831 2821.171387,1296.053833 
	C2827.864990,1289.768555 2830.180420,1282.039307 2826.639893,1273.366821 
	C2824.007568,1266.919678 2820.625000,1260.778198 2817.559814,1254.508789 
	C2815.717773,1250.740845 2813.842529,1246.989014 2811.383057,1242.019409 
	C2835.964355,1242.019409 2858.871094,1242.019409 2882.645020,1242.062012 
z"/>
<path fill="#686868" opacity="1.000000" stroke="none" 
	d="
M2414.612305,1280.000366 
	C2414.611816,1267.066284 2414.611816,1255.132080 2414.611816,1242.622070 
	C2435.178467,1242.622070 2454.741211,1242.622070 2474.373047,1242.622070 
	C2476.571777,1249.318604 2477.470459,1335.004639 2475.506836,1356.642090 
	C2468.467285,1358.546631 2429.654297,1359.029663 2415.005859,1357.234619 
	C2414.129883,1344.642822 2414.755371,1331.791748 2414.638428,1318.977661 
	C2414.522705,1306.319580 2414.613037,1293.659424 2414.612305,1280.000366 
z"/>
<path fill="#FED442" opacity="1.000000" stroke="none" 
	d="
M901.276306,1265.541626 
	C905.407593,1284.656128 909.538940,1303.770630 913.824951,1323.600708 
	C911.417114,1323.829346 908.932312,1324.269653 906.447327,1324.271240 
	C844.821045,1324.307983 783.194763,1324.304688 721.568481,1324.277954 
	C718.576416,1324.276611 715.545837,1324.249634 712.599304,1323.800659 
	C700.657471,1321.981201 693.593628,1314.731689 692.054688,1302.708740 
	C691.633545,1299.418091 691.611511,1296.061035 691.611450,1292.734375 
	C691.610229,1243.100464 691.643677,1193.466675 692.609985,1142.926758 
	C698.050659,1144.027344 702.743958,1145.694092 707.003540,1148.121826 
	C713.049255,1151.567505 718.728699,1155.649048 724.647339,1159.325806 
	C743.807861,1171.228516 762.992554,1183.092285 782.204163,1194.912354 
	C785.085205,1196.684937 788.113708,1198.180420 787.817505,1202.868652 
	C780.125244,1206.074951 777.346619,1212.706055 774.910706,1219.082642 
	C769.198914,1234.034180 777.022156,1250.474976 791.799438,1255.676636 
	C807.627625,1261.248169 823.234863,1253.641479 828.449890,1237.674805 
	C829.472534,1234.543945 829.907532,1231.221313 831.350708,1227.997192 
	C834.279541,1228.590088 836.755066,1228.702759 838.618591,1229.828613 
	C855.941162,1240.293335 873.099365,1251.030762 890.458435,1261.433472 
	C893.715515,1263.385132 897.652893,1264.201416 901.276306,1265.541626 
z"/>
<path fill="#FFCC38" opacity="1.000000" stroke="none" 
	d="
M901.381714,1264.635254 
	C897.652893,1264.201416 893.715515,1263.385132 890.458435,1261.433472 
	C873.099365,1251.030762 855.941162,1240.293335 838.618591,1229.828613 
	C836.755066,1228.702759 834.279541,1228.590088 831.166321,1227.334839 
	C830.340454,1225.755859 830.436157,1224.849243 830.774841,1223.730469 
	C831.297668,1222.843140 831.072876,1222.345459 830.046692,1221.368896 
	C823.128479,1204.401733 811.756531,1198.135376 794.874268,1201.419312 
	C792.640625,1201.853882 790.343872,1201.964355 788.076355,1202.224976 
	C788.113708,1198.180420 785.085205,1196.684937 782.204163,1194.912354 
	C762.992554,1183.092285 743.807861,1171.228516 724.647339,1159.325806 
	C718.728699,1155.649048 713.049255,1151.567505 707.003540,1148.121826 
	C702.743958,1145.694092 698.050659,1144.027344 692.802551,1142.005859 
	C691.899963,1127.108765 691.649902,1112.226685 691.613892,1097.344116 
	C691.557800,1074.170654 691.647034,1050.997070 692.614868,1026.907471 
	C695.560242,1025.968506 697.565247,1025.945679 699.709595,1026.753662 
	C699.934631,1030.382812 700.020325,1033.181152 700.041382,1036.916016 
	C699.976685,1049.326782 699.976685,1060.800903 699.976685,1072.826050 
	C706.510071,1068.681885 711.968750,1065.219482 718.036072,1062.119019 
	C720.898376,1064.883057 722.791016,1067.838989 725.471558,1069.585693 
	C734.363525,1075.379395 743.561584,1080.701538 752.601746,1086.270142 
	C779.160950,1102.630737 805.699524,1119.024902 832.248779,1135.401489 
	C842.963257,1142.010742 853.698303,1148.586426 864.396912,1155.221069 
	C869.744019,1158.537231 874.914124,1162.154785 880.371765,1165.272705 
	C888.098328,1169.686768 896.016663,1173.765259 903.853027,1177.987061 
	C902.674438,1198.674072 901.270569,1219.351685 900.432617,1240.052368 
	C900.114197,1247.917480 901.097168,1255.835205 901.381714,1264.635254 
z"/>
<path fill="#FFC530" opacity="1.000000" stroke="none" 
	d="
M904.192688,1177.288330 
	C896.016663,1173.765259 888.098328,1169.686768 880.371765,1165.272705 
	C874.914124,1162.154785 869.744019,1158.537231 864.396912,1155.221069 
	C853.698303,1148.586426 842.963257,1142.010742 832.248779,1135.401489 
	C805.699524,1119.024902 779.160950,1102.630737 752.601746,1086.270142 
	C743.561584,1080.701538 734.363525,1075.379395 725.471558,1069.585693 
	C722.791016,1067.838989 720.898376,1064.883057 718.276978,1061.470703 
	C718.932434,1059.201416 719.736633,1057.631226 721.013550,1056.733154 
	C731.538025,1049.331177 741.817749,1041.501221 752.823120,1034.884277 
	C765.504639,1027.259644 778.850342,1020.739746 791.934692,1014.526733 
	C790.724976,1021.758911 795.732849,1024.052856 799.841919,1026.591797 
	C818.962891,1038.406494 838.276123,1049.910767 857.365906,1061.774902 
	C873.628723,1071.881958 889.411316,1082.790649 905.944031,1092.421753 
	C913.783630,1096.988770 920.830872,1103.807861 930.747803,1104.202881 
	C925.816223,1115.362061 920.239441,1126.289551 916.125671,1137.742432 
	C911.564270,1150.441162 908.339233,1163.619873 904.192688,1177.288330 
z"/>
<path fill="#FEC029" opacity="1.000000" stroke="none" 
	d="
M931.249573,1103.777832 
	C920.830872,1103.807861 913.783630,1096.988770 905.944031,1092.421753 
	C889.411316,1082.790649 873.628723,1071.881958 857.365906,1061.774902 
	C838.276123,1049.910767 818.962891,1038.406494 799.841919,1026.591797 
	C795.732849,1024.052856 790.724976,1021.758911 792.377686,1014.004517 
	C816.318909,1003.109680 839.713013,993.181030 863.432739,984.103088 
	C873.224060,980.355835 883.714050,978.434570 893.926392,976.442871 
	C893.579224,983.293274 898.949585,984.749451 902.575378,987.014709 
	C926.664673,1002.064270 950.984009,1016.745300 975.124084,1031.714600 
	C977.139038,1032.964111 978.384644,1035.454346 979.987671,1037.368164 
	C961.421692,1057.544800 944.747681,1079.104614 931.249573,1103.777832 
z"/>
<path fill="#FABA1F" opacity="1.000000" stroke="none" 
	d="
M980.605652,1037.200928 
	C978.384644,1035.454346 977.139038,1032.964111 975.124084,1031.714600 
	C950.984009,1016.745300 926.664673,1002.064270 902.575378,987.014709 
	C898.949585,984.749451 893.579224,983.293274 894.438538,975.930664 
	C899.245239,973.592102 903.579956,972.526001 908.656555,971.323914 
	C926.370422,967.411316 943.322937,963.544189 960.321899,959.892822 
	C970.188354,957.773560 980.129211,956.000732 990.921814,954.081970 
	C1005.856750,952.649048 1019.906372,951.206116 1034.479614,949.845276 
	C1035.350708,949.990601 1035.698364,950.053955 1035.960205,950.804199 
	C1034.259521,955.166687 1034.000977,958.071411 1038.462646,960.368835 
	C1043.677612,963.054016 1048.612061,966.369385 1053.381592,969.808777 
	C1057.816284,973.006592 1061.874146,976.726929 1066.097900,980.217224 
	C1065.951172,980.513489 1065.874268,980.993896 1065.647827,981.079834 
	C1033.279175,993.357178 1006.524597,1014.097961 980.605652,1037.200928 
z"/>
<path fill="#EDB214" opacity="1.000000" stroke="none" 
	d="
M1066.898193,980.193726 
	C1061.874146,976.726929 1057.816284,973.006592 1053.381592,969.808777 
	C1048.612061,966.369385 1043.677612,963.054016 1038.462646,960.368835 
	C1034.000977,958.071411 1034.259521,955.166687 1036.821655,950.756592 
	C1060.259644,948.703369 1082.737305,946.709351 1105.245361,946.270264 
	C1124.792603,945.888977 1144.374023,947.267090 1164.812012,947.925781 
	C1195.401245,951.004333 1225.118774,954.024536 1255.597534,957.122131 
	C1255.597534,932.923523 1255.597534,909.384460 1255.659668,884.920532 
	C1255.648804,863.300781 1255.575806,842.605957 1255.620605,820.995422 
	C1255.637939,811.357788 1255.537354,802.635925 1255.549683,793.067139 
	C1255.163208,787.380920 1254.721680,782.534790 1254.150757,777.703918 
	C1253.341675,770.858765 1250.609497,765.227417 1243.343506,761.867676 
	C1238.475708,759.651733 1234.225098,757.763611 1229.348999,755.334473 
	C1224.765137,754.553162 1220.806763,754.104492 1216.848145,754.102722 
	C1057.104004,754.031067 897.359924,754.011230 737.615906,753.895203 
	C733.770081,753.892395 729.925049,752.874512 726.079651,752.330078 
	C729.397217,752.169434 732.714844,751.868225 736.032410,751.868286 
	C900.345154,751.872681 1064.657837,751.900818 1228.970581,751.941772 
	C1232.967163,751.942749 1236.995850,751.825500 1240.954468,752.262695 
	C1254.390381,753.746277 1261.959473,761.297607 1263.655640,774.731384 
	C1263.988159,777.365356 1263.985596,780.052917 1263.987061,782.715820 
	C1264.022339,844.041443 1264.040894,905.367065 1264.040161,966.692688 
	C1264.040161,968.975647 1263.816528,971.258606 1263.621948,974.972290 
	C1255.649780,973.604553 1248.238892,972.499084 1240.898560,971.038574 
	C1226.215088,968.117004 1211.656982,964.466858 1196.891724,962.075867 
	C1165.735840,957.030701 1135.138306,961.079224 1104.971680,969.308105 
	C1092.488647,972.713257 1080.119507,976.536865 1066.898193,980.193726 
z"/>
<path fill="#FEC029" opacity="1.000000" stroke="none" 
	d="
M725.317993,752.169678 
	C729.925049,752.874512 733.770081,753.892395 737.615906,753.895203 
	C897.359924,754.011230 1057.104004,754.031067 1216.848145,754.102722 
	C1220.806763,754.104492 1224.765137,754.553162 1228.417236,755.401489 
	C1210.715942,756.088623 1193.321045,756.167725 1174.996582,756.171936 
	C1159.361938,756.162048 1144.657227,756.227112 1129.023315,756.197876 
	C1106.044922,756.164246 1083.995605,756.224854 1061.017822,756.187439 
	C1036.043335,756.147766 1011.997131,756.205994 987.022827,756.159912 
	C960.715515,756.116516 935.336365,756.177429 909.028259,756.128906 
	C849.159058,755.913879 790.218811,755.721191 731.278625,755.749207 
	C710.201050,755.759216 699.968567,765.981384 699.863770,787.067017 
	C699.742981,811.369873 700.058655,835.674805 700.043518,860.909058 
	C699.984253,876.553528 700.066284,891.267883 700.024170,906.913757 
	C699.970093,923.225525 700.040039,938.605835 700.003784,954.919128 
	C699.956299,969.897583 700.014954,983.942932 699.987122,998.914917 
	C699.790527,1008.535278 699.680420,1017.229065 699.570312,1025.922852 
	C697.565247,1025.945679 695.560242,1025.968506 692.803223,1025.984985 
	C691.892639,1022.663330 691.596130,1019.348083 691.595886,1016.032776 
	C691.590393,939.765747 691.611511,863.498657 691.652710,787.231628 
	C691.655090,782.905151 691.524292,778.535583 692.057251,774.261047 
	C693.301086,764.284668 697.737183,756.593994 709.345337,753.830750 
	C711.070862,753.786133 711.524231,753.489502 711.839722,752.982117 
	C712.775635,752.746582 713.711609,752.511108 715.672119,752.752563 
	C717.773987,752.936462 718.851257,752.643433 719.928467,752.350403 
	C721.471069,752.236755 723.013733,752.123047 725.317993,752.169678 
z"/>
<path fill="#EDB214" opacity="1.000000" stroke="none" 
	d="
M719.294434,752.160950 
	C718.851257,752.643433 717.773987,752.936462 716.396667,752.844971 
	C716.951172,752.297485 717.805725,752.134460 719.294434,752.160950 
z"/>
<path fill="#EDB214" opacity="1.000000" stroke="none" 
	d="
M711.411011,752.864746 
	C711.524231,753.489502 711.070862,753.786133 710.063171,753.842285 
	C709.884766,753.197571 710.329895,752.842529 711.411011,752.864746 
z"/>
<path fill="#040403" opacity="1.000000" stroke="none" 
	d="
M787.817505,1202.868652 
	C790.343872,1201.964355 792.640625,1201.853882 794.874268,1201.419312 
	C811.756531,1198.135376 823.128479,1204.401733 829.946289,1221.862793 
	C830.272339,1223.322998 830.402039,1223.632812 830.531799,1223.942749 
	C830.436157,1224.849243 830.340454,1225.755859 830.429138,1227.324707 
	C829.907532,1231.221313 829.472534,1234.543945 828.449890,1237.674805 
	C823.234863,1253.641479 807.627625,1261.248169 791.799438,1255.676636 
	C777.022156,1250.474976 769.198914,1234.034180 774.910706,1219.082642 
	C777.346619,1212.706055 780.125244,1206.074951 787.817505,1202.868652 
z"/>
<path fill="#FCDE92" opacity="1.000000" stroke="none" 
	d="
M699.709595,1026.753662 
	C699.680420,1017.229065 699.790527,1008.535278 700.801941,998.918579 
	C708.285217,998.315979 713.854553,995.901917 719.389526,992.439514 
	C732.876892,984.002563 746.570435,975.885376 760.327148,967.891052 
	C781.282776,955.713257 802.406433,943.824707 823.376038,931.670654 
	C844.343201,919.518127 865.123840,907.042419 886.143372,894.982117 
	C905.702087,883.760132 925.538208,873.022339 945.125305,861.848938 
	C973.623047,845.592529 1001.974915,829.080383 1030.452271,812.787781 
	C1046.305908,803.717590 1062.142578,794.599243 1078.254272,786.003784 
	C1093.191650,778.034668 1108.478760,770.720276 1123.626221,763.146240 
	C1126.623413,761.647644 1129.872314,760.451660 1129.952393,756.292114 
	C1144.657227,756.227112 1159.361938,756.162048 1174.895142,756.840942 
	C1170.947998,760.356934 1166.307617,763.401489 1161.371948,765.850830 
	C1145.368286,773.792542 1128.914795,780.895630 1113.281738,789.497986 
	C1097.661377,798.093079 1082.798096,808.068542 1067.645386,817.507080 
	C1056.710327,824.318542 1045.732178,831.070740 1034.972900,838.152771 
	C1016.209167,850.503418 997.428345,862.843140 979.022522,875.713562 
	C973.005310,879.921082 965.348450,882.499390 961.250671,890.010864 
	C953.083984,893.546387 945.429382,896.647522 938.302490,900.681152 
	C921.833130,910.002136 905.648743,919.825073 889.294006,929.350525 
	C873.799927,938.374695 858.144226,947.124268 842.727722,956.277832 
	C826.189636,966.097473 809.910889,976.353027 793.405518,986.228760 
	C766.641541,1002.242798 739.706543,1017.972778 713.045654,1034.155273 
	C708.649231,1036.823853 704.751526,1037.688965 700.105957,1035.979492 
	C700.020325,1033.181152 699.934631,1030.382812 699.709595,1026.753662 
z"/>
<path fill="#FEDB84" opacity="1.000000" stroke="none" 
	d="
M700.041321,1036.916016 
	C704.751526,1037.688965 708.649231,1036.823853 713.045654,1034.155273 
	C739.706543,1017.972778 766.641541,1002.242798 793.405518,986.228760 
	C809.910889,976.353027 826.189636,966.097473 842.727722,956.277832 
	C858.144226,947.124268 873.799927,938.374695 889.294006,929.350525 
	C905.648743,919.825073 921.833130,910.002136 938.302490,900.681152 
	C945.429382,896.647522 953.083984,893.546387 961.912842,890.300232 
	C964.570557,890.973022 966.187134,892.080200 967.001709,891.654114 
	C978.495117,885.642212 991.023743,883.792664 1003.624084,882.128479 
	C1004.563110,882.004456 1005.397400,881.224976 1006.338501,880.945862 
	C1007.588257,880.574951 1009.195129,879.779358 1010.129822,880.233582 
	C1017.293640,883.715637 1023.517822,879.905273 1029.894043,878.678589 
	C1023.817017,883.928711 1018.007996,888.741577 1011.826416,893.015625 
	C1002.332397,899.579895 992.414734,905.536316 982.985779,912.188599 
	C972.484619,919.597290 962.432129,927.639038 951.997559,935.145691 
	C939.132019,944.401245 926.097290,953.422852 913.081970,962.468201 
	C909.873169,964.698181 907.669189,967.329773 907.914734,971.459839 
	C903.579956,972.526001 899.245239,973.592102 894.398315,975.170532 
	C883.714050,978.434570 873.224060,980.355835 863.432739,984.103088 
	C839.713013,993.181030 816.318909,1003.109680 792.350586,1013.217834 
	C778.850342,1020.739746 765.504639,1027.259644 752.823120,1034.884277 
	C741.817749,1041.501221 731.538025,1049.331177 721.013550,1056.733154 
	C719.736633,1057.631226 718.932434,1059.201416 717.668335,1061.108643 
	C711.968750,1065.219482 706.510071,1068.681885 699.976685,1072.826050 
	C699.976685,1060.800903 699.976685,1049.326782 700.041321,1036.916016 
z"/>
<path fill="#FED442" opacity="1.000000" stroke="none" 
	d="
M830.774841,1223.730469 
	C830.402039,1223.632812 830.272339,1223.322998 830.243164,1222.519043 
	C831.072876,1222.345459 831.297668,1222.843140 830.774841,1223.730469 
z"/>
<path fill="#F1CB5C" opacity="1.000000" stroke="none" 
	d="
M1163.940430,947.867554 
	C1144.374023,947.267090 1124.792603,945.888977 1105.245361,946.270264 
	C1082.737305,946.709351 1060.259644,948.703369 1036.907349,950.069641 
	C1035.698364,950.053955 1035.350708,949.990601 1034.579346,949.175293 
	C1037.723999,945.135254 1040.890259,941.201172 1044.936768,938.680176 
	C1057.041138,931.139160 1069.533203,924.223511 1081.792603,916.927063 
	C1094.047729,909.632996 1106.166382,902.109497 1118.417480,894.808411 
	C1127.537964,889.372925 1136.895142,884.327271 1145.928955,878.754395 
	C1157.187866,871.808777 1167.911377,863.944885 1179.429077,857.480652 
	C1195.851074,848.263855 1212.563110,839.488342 1229.594482,831.465454 
	C1237.853882,827.574768 1245.765381,822.054504 1255.502808,821.911133 
	C1255.575806,842.605957 1255.648804,863.300781 1254.935547,884.972290 
	C1251.704346,886.725037 1248.860352,886.945862 1246.880127,888.368713 
	C1235.386475,896.627075 1224.323608,905.497986 1212.681152,913.533020 
	C1196.989136,924.362915 1180.892456,934.605774 1165.027466,945.187805 
	C1164.364380,945.630127 1164.289429,946.954285 1163.940430,947.867554 
z"/>
<path fill="#F6D476" opacity="1.000000" stroke="none" 
	d="
M908.656555,971.323853 
	C907.669189,967.329773 909.873169,964.698181 913.081970,962.468201 
	C926.097290,953.422852 939.132019,944.401245 951.997559,935.145691 
	C962.432129,927.639038 972.484619,919.597290 982.985779,912.188599 
	C992.414734,905.536316 1002.332397,899.579895 1011.826416,893.015625 
	C1018.007996,888.741577 1023.817017,883.928711 1030.640381,878.668457 
	C1034.515869,876.750732 1037.769897,875.894897 1040.530884,874.224365 
	C1049.579712,868.749329 1058.306030,862.734924 1067.416016,857.368652 
	C1089.717773,844.231873 1112.336304,831.626282 1134.500000,818.263855 
	C1152.730347,807.272766 1171.682739,797.931396 1191.340698,789.817200 
	C1206.679565,783.485779 1221.715576,776.415955 1236.833496,769.557983 
	C1240.080322,768.085205 1243.912354,766.892517 1243.960571,762.195496 
	C1250.609497,765.227417 1253.341675,770.858765 1254.150757,777.703918 
	C1254.721680,782.534790 1255.163208,787.380920 1254.788086,793.093750 
	C1250.101562,794.895691 1246.118286,795.395386 1242.510742,796.836182 
	C1233.270996,800.526306 1224.077393,804.379456 1215.087646,808.636963 
	C1202.199097,814.740967 1189.276733,820.842834 1176.800171,827.727234 
	C1165.213867,834.120422 1154.138550,841.452332 1142.939575,848.531311 
	C1132.892212,854.882446 1122.923462,861.362732 1113.030762,867.952393 
	C1105.050293,873.268433 1097.314819,878.952515 1089.327881,884.258606 
	C1077.474609,892.133301 1065.416748,899.701111 1053.591309,907.616638 
	C1041.754272,915.539978 1030.066406,923.687561 1018.368774,931.816956 
	C1009.147888,938.225098 999.989929,944.725037 990.884033,951.295166 
	C990.259033,951.746155 990.303406,953.124695 990.036560,954.071899 
	C980.129211,956.000732 970.188354,957.773560 960.321899,959.892822 
	C943.322937,963.544189 926.370422,967.411316 908.656555,971.323853 
z"/>
<path fill="#F3D06A" opacity="1.000000" stroke="none" 
	d="
M990.921814,954.081909 
	C990.303406,953.124695 990.259033,951.746155 990.884033,951.295166 
	C999.989929,944.725037 1009.147888,938.225098 1018.368774,931.816956 
	C1030.066406,923.687561 1041.754272,915.539978 1053.591309,907.616638 
	C1065.416748,899.701111 1077.474609,892.133301 1089.327881,884.258606 
	C1097.314819,878.952515 1105.050293,873.268433 1113.030762,867.952393 
	C1122.923462,861.362732 1132.892212,854.882446 1142.939575,848.531311 
	C1154.138550,841.452332 1165.213867,834.120422 1176.800171,827.727234 
	C1189.276733,820.842834 1202.199097,814.740967 1215.087646,808.636963 
	C1224.077393,804.379456 1233.270996,800.526306 1242.510742,796.836182 
	C1246.118286,795.395386 1250.101562,794.895691 1254.675293,793.940674 
	C1255.537354,802.635925 1255.637939,811.357788 1255.620605,820.995422 
	C1245.765381,822.054504 1237.853882,827.574768 1229.594482,831.465454 
	C1212.563110,839.488342 1195.851074,848.263855 1179.429077,857.480652 
	C1167.911377,863.944885 1157.187866,871.808777 1145.928955,878.754395 
	C1136.895142,884.327271 1127.537964,889.372925 1118.417480,894.808411 
	C1106.166382,902.109497 1094.047729,909.632996 1081.792603,916.927063 
	C1069.533203,924.223511 1057.041138,931.139160 1044.936768,938.680176 
	C1040.890259,941.201172 1037.723999,945.135254 1034.055664,949.093262 
	C1019.906372,951.206116 1005.856750,952.649048 990.921814,954.081909 
z"/>
<path fill="#F5D987" opacity="1.000000" stroke="none" 
	d="
M1243.343506,761.867676 
	C1243.912354,766.892517 1240.080322,768.085205 1236.833496,769.557983 
	C1221.715576,776.415955 1206.679565,783.485779 1191.340698,789.817200 
	C1171.682739,797.931396 1152.730347,807.272766 1134.500000,818.263855 
	C1112.336304,831.626282 1089.717773,844.231873 1067.416016,857.368652 
	C1058.306030,862.734924 1049.579712,868.749329 1040.530884,874.224365 
	C1037.769897,875.894897 1034.515869,876.750732 1030.741455,877.989868 
	C1023.517822,879.905273 1017.293640,883.715637 1010.129822,880.233582 
	C1009.195129,879.779358 1007.588257,880.574951 1006.338501,880.945862 
	C1005.397400,881.224976 1004.563110,882.004456 1003.624084,882.128479 
	C991.023743,883.792664 978.495117,885.642212 967.001709,891.654114 
	C966.187134,892.080200 964.570557,890.973022 962.664673,890.289429 
	C965.348450,882.499390 973.005310,879.921082 979.022522,875.713562 
	C997.428345,862.843140 1016.209167,850.503418 1034.972900,838.152771 
	C1045.732178,831.070740 1056.710327,824.318542 1067.645386,817.507080 
	C1082.798096,808.068542 1097.661377,798.093079 1113.281738,789.497986 
	C1128.914795,780.895630 1145.368286,773.792542 1161.371948,765.850830 
	C1166.307617,763.401489 1170.947998,760.356934 1175.824951,756.915894 
	C1193.321045,756.167725 1210.715942,756.088623 1229.042480,755.942505 
	C1234.225098,757.763611 1238.475708,759.651733 1243.343506,761.867676 
z"/>
<path fill="#FFCC38" opacity="1.000000" stroke="none" 
	d="
M1164.812012,947.925781 
	C1164.289429,946.954285 1164.364380,945.630127 1165.027466,945.187805 
	C1180.892456,934.605774 1196.989136,924.362915 1212.681152,913.533020 
	C1224.323608,905.497986 1235.386475,896.627075 1246.880127,888.368713 
	C1248.860352,886.945862 1251.704346,886.725037 1254.873535,885.897156 
	C1255.597534,909.384460 1255.597534,932.923523 1255.597534,957.122131 
	C1225.118774,954.024536 1195.401245,951.004333 1164.812012,947.925781 
z"/>
<path fill="#FCE29F" opacity="1.000000" stroke="none" 
	d="
M1129.023315,756.197876 
	C1129.872314,760.451660 1126.623413,761.647644 1123.626221,763.146240 
	C1108.478760,770.720276 1093.191650,778.034668 1078.254272,786.003784 
	C1062.142578,794.599243 1046.305908,803.717590 1030.452271,812.787781 
	C1001.974915,829.080383 973.623047,845.592529 945.125305,861.848938 
	C925.538208,873.022339 905.702087,883.760132 886.143372,894.982117 
	C865.123840,907.042419 844.343201,919.518127 823.376038,931.670654 
	C802.406433,943.824707 781.282776,955.713257 760.327148,967.891052 
	C746.570435,975.885376 732.876892,984.002563 719.389526,992.439514 
	C713.854553,995.901917 708.285217,998.315979 700.888428,997.992004 
	C700.014954,983.942932 699.956299,969.897583 700.724426,955.009521 
	C705.848083,956.578369 709.626587,955.418518 713.690735,953.091980 
	C738.195129,939.063538 762.767029,925.151489 787.402344,911.354004 
	C799.005127,904.855713 810.900940,898.879089 822.481873,892.343445 
	C837.743286,883.730713 852.733276,874.636169 868.014832,866.060425 
	C879.614258,859.550964 891.568054,853.675842 903.220581,847.257690 
	C926.212769,834.593750 949.085999,821.713867 972.046448,808.991943 
	C986.256348,801.118530 1000.537354,793.373474 1014.784363,785.567078 
	C1028.697021,777.943970 1042.674805,770.434814 1056.451660,762.573425 
	C1058.735474,761.270264 1060.136963,758.420410 1061.946289,756.285400 
	C1083.995605,756.224854 1106.044922,756.164246 1129.023315,756.197876 
z"/>
<path fill="#FDE7AF" opacity="1.000000" stroke="none" 
	d="
M1061.017822,756.187439 
	C1060.136963,758.420410 1058.735474,761.270264 1056.451660,762.573425 
	C1042.674805,770.434814 1028.697021,777.943970 1014.784363,785.567078 
	C1000.537354,793.373474 986.256348,801.118530 972.046448,808.991943 
	C949.085999,821.713867 926.212769,834.593750 903.220581,847.257690 
	C891.568054,853.675842 879.614258,859.550964 868.014832,866.060425 
	C852.733276,874.636169 837.743286,883.730713 822.481873,892.343445 
	C810.900940,898.879089 799.005127,904.855713 787.402344,911.354004 
	C762.767029,925.151489 738.195129,939.063538 713.690735,953.091980 
	C709.626587,955.418518 705.848083,956.578369 700.830627,954.076538 
	C700.040039,938.605835 699.970093,923.225525 700.744751,907.007996 
	C706.305176,908.970337 710.397827,906.953003 714.620483,904.709167 
	C747.986694,886.978760 781.416626,869.368164 814.771667,851.616882 
	C830.284729,843.361084 845.676086,834.876404 861.120789,826.492188 
	C868.952148,822.240906 876.747559,817.922119 884.616333,813.741272 
	C896.587402,807.380920 908.555176,801.010498 920.620911,794.833069 
	C936.252502,786.829834 951.954590,778.963074 967.675049,771.135498 
	C975.307434,767.335266 982.670532,763.238464 987.950989,756.264282 
	C1011.997131,756.205994 1036.043335,756.147766 1061.017822,756.187439 
z"/>
<path fill="#FEF2D1" opacity="1.000000" stroke="none" 
	d="
M700.184753,859.978882 
	C700.058655,835.674805 699.742981,811.369873 699.863770,787.067017 
	C699.968567,765.981384 710.201050,755.759216 731.278625,755.749207 
	C790.218811,755.721191 849.159058,755.913879 908.917664,756.795837 
	C908.274719,758.825317 906.987732,760.411865 905.325500,761.280579 
	C885.968384,771.397644 866.570374,781.436890 847.152039,791.436279 
	C822.969604,803.888977 798.742737,816.255249 774.564209,828.715454 
	C757.207825,837.659912 740.054993,847.018311 722.491211,855.531555 
	C715.678467,858.833740 708.708435,864.097473 700.184753,859.978882 
z"/>
<path fill="#FDECC0" opacity="1.000000" stroke="none" 
	d="
M700.043518,860.909058 
	C708.708435,864.097473 715.678467,858.833740 722.491211,855.531555 
	C740.054993,847.018311 757.207825,837.659912 774.564209,828.715454 
	C798.742737,816.255249 822.969604,803.888977 847.152039,791.436279 
	C866.570374,781.436890 885.968384,771.397644 905.325500,761.280579 
	C906.987732,760.411865 908.274719,758.825317 909.846619,756.905273 
	C935.336365,756.177429 960.715515,756.116516 987.022827,756.159912 
	C982.670532,763.238464 975.307434,767.335266 967.675049,771.135498 
	C951.954590,778.963074 936.252502,786.829834 920.620911,794.833069 
	C908.555176,801.010498 896.587402,807.380920 884.616333,813.741272 
	C876.747559,817.922119 868.952148,822.240906 861.120789,826.492188 
	C845.676086,834.876404 830.284729,843.361084 814.771667,851.616882 
	C781.416626,869.368164 747.986694,886.978760 714.620483,904.709167 
	C710.397827,906.953003 706.305176,908.970337 700.868774,906.076477 
	C700.066284,891.267883 699.984253,876.553528 700.043518,860.909058 
z"/>
</svg>